<svg xmlns="http://www.w3.org/2000/svg" viewBox="0 0 40 40">
  <defs>
    <style>.cls-916968{fill:#916968;}</style>
  </defs>
  <g id="Type">
    <path class="cls-916968"
          d="M37.47,15s0,0,0,0A6.87,6.87,0,0,0,36.67,13,5.13,5.13,0,0,1,37,14.72c0,5-7.62,9.1-17,9.1s-17-4.07-17-9.1a4.85,4.85,0,0,1,.18-1.26,6.67,6.67,0,0,0-.54,1.47s0,0,0,0c-1.13,4.57-4.18,3.75-1.38,5.43a5.21,5.21,0,0,0,1.29.43C1.66,21.61.58,22.23,1,23.43c.17.49,1.09.94,2.52,1.35-.11.13-.24.26-.37.39C1.64,26.63,1.82,28.36,5.92,28h.19a5,5,0,0,0-.61,1.16c-.39,1.16,1,2.62,4.22,1,1.67-.84,1.6.62,1.4,1.88s2.75,1.82,4.34-.52c1.19-1.76,2.29,1.74,4.05,2.34a1.75,1.75,0,0,0,1,0c1.76-.6,2.86-4.1,4.05-2.34,1.59,2.34,4.55,1.79,4.34.52s-.27-2.72,1.4-1.88c3.23,1.59,4.61.13,4.22-1A5,5,0,0,0,33.89,28h.19c4.1.38,4.28-1.35,2.75-2.81-.13-.13-.26-.26-.37-.39,1.43-.41,2.35-.86,2.52-1.35.44-1.2-.64-1.82-1.42-2.61a5.21,5.21,0,0,0,1.29-.43C41.65,18.71,38.6,19.53,37.47,15Z"/>
    <path class="cls-916968" d="M20,22.14c8.82,0,16-3.63,16-8.1S28.77,5.93,20,5.93,4,9.56,4,14,11.12,22.14,20,22.14Z"/>
  </g>
</svg>
