<svg xmlns="http://www.w3.org/2000/svg" viewBox="0 0 40 40">
  <defs>
    <style>.cls-916968{fill:#916968;}.cls-fff{fill:#fff;}</style>
  </defs>
  <g id="Type">
    <path class="cls-916968"
          d="M20,10.05A44.21,44.21,0,0,1,5.16,7.45L9,36c.3,2.23,5,4,11,4s10.67-1.81,11-4L34.84,7.45A44.26,44.26,0,0,1,20,10.05Z"/>
    <ellipse class="cls-916968" cx="20" cy="4" rx="15" ry="4"/>
    <circle class="cls-fff" cx="24.86" cy="15.86" r="1"/>
    <circle class="cls-fff" cx="31" cy="19" r="1"/>
    <circle class="cls-fff" cx="23.5" cy="21.5" r="0.5"/>
    <circle class="cls-fff" cx="19.5" cy="17.5" r="0.5"/>
    <circle class="cls-fff" cx="31.5" cy="11.5" r="0.5"/>
    <circle class="cls-fff" cx="17" cy="27" r="1"/>
    <circle class="cls-fff" cx="22" cy="33" r="1"/>
    <circle class="cls-fff" cx="15.5" cy="34.5" r="0.5"/>
    <circle class="cls-fff" cx="9" cy="15" r="1"/>
    <circle class="cls-fff" cx="14" cy="20" r="1"/>
    <circle class="cls-fff" cx="9.5" cy="23.5" r="0.5"/>
    <circle class="cls-fff" cx="12" cy="30" r="1"/>
    <circle class="cls-fff" cx="17" cy="13" r="1"/>
    <circle class="cls-fff" cx="29" cy="28" r="1"/>
  </g>
</svg>
