<svg xmlns="http://www.w3.org/2000/svg" viewBox="0 0 40 40">
  <defs>
    <style>.cls-916968{fill:#916968;}</style>
  </defs>
  <g id="Type">
    <path class="cls-916968"
          d="M20,0C11.76,0,3,2.45,3,7V19c0,2.19,2,3.88,5.05,5.06v1.83c0,1.47,1.16,2.63,2.95,3.48V36c0,2.63,4.53,4,9,4s9-1.37,9-4V29.37c1.79-.85,2.95-2,2.95-3.48V24.06C35,22.88,37,21.19,37,19V7C37,2.45,28.24,0,20,0Zm0,2c8.58,0,15,2.64,15,5s-6.42,5-15,5S5,9.36,5,7,11.42,2,20,2Zm7,34c0,.58-2.45,2-7,2s-7-1.42-7-2V30.1a26.13,26.13,0,0,0,7,.9,26.13,26.13,0,0,0,7-.9ZM30,25.89c0,.67-1.07,1.48-2.94,2.11h0a22.29,22.29,0,0,1-7,1,22.29,22.29,0,0,1-7-1h0c-1.87-.63-2.94-1.44-2.94-2.11V24.73A38,38,0,0,0,20,26a38,38,0,0,0,10-1.27ZM20,24c-8.58,0-15-2.64-15-5V10.41C8.05,12.76,14.15,14,20,14s12-1.24,15-3.59V19C35,21.36,28.58,24,20,24Z"/>
    <path class="cls-916968"
          d="M10,7.9A24.22,24.22,0,0,1,20,6,24.22,24.22,0,0,1,30,7.9a1,1,0,0,0,.43.1,1,1,0,0,0,.44-1.9A26.22,26.22,0,0,0,20,4,26.22,26.22,0,0,0,9.13,6.1,1,1,0,1,0,10,7.9Z"/>
  </g>
</svg>
