<svg xmlns="http://www.w3.org/2000/svg" viewBox="0 0 40 40">
  <defs>
    <style>.cls-916968{fill:#916968;}</style>
  </defs>
  <g id="Type">
    <path class="cls-916968" d="M20,7.3c6,0,10-1.64,10-3.65S26,0,20,0,10,1.63,10,3.65,14.06,7.3,20,7.3Z"/>
    <path class="cls-916968"
          d="M33,6.13a3.46,3.46,0,0,0-1.43-2.74h0a2.26,2.26,0,0,1,.36,1.2c0,2.53-4.73,4.59-11.68,4.59H19.8c-7,0-11.69-2.06-11.69-4.59a2.28,2.28,0,0,1,.37-1.2h0A3.47,3.47,0,0,0,7,6.13a54.87,54.87,0,0,0,.5,7.1C7.76,15,9.27,16.39,12,17.31V30.45A117.94,117.94,0,0,1,26.18,20C16.51,28.16,13,32.36,12,33.72V36h.05c0,2.21,3.57,4,8,4s8-1.79,8-4V17.31c2.75-.91,4.26-2.36,4.49-4.08A53.11,53.11,0,0,0,33,6.13ZM21.5,32a.5.5,0,1,1,.5-.5A.5.5,0,0,1,21.5,32Zm3,4a.5.5,0,1,1,.5-.5A.5.5,0,0,1,24.5,36Zm1-8a.5.5,0,1,1,.5-.5A.5.5,0,0,1,25.5,28Zm1-14a.5.5,0,1,1-.5.5A.5.5,0,0,1,26.5,14Zm-5-2a.5.5,0,1,1-.5.5A.5.5,0,0,1,21.5,12Zm-9-1a.5.5,0,1,1-.5.5A.5.5,0,0,1,12.5,11Zm4,11a.5.5,0,1,1,.5-.5A.5.5,0,0,1,16.5,22Zm12-11a.5.5,0,1,1,.5-.5A.5.5,0,0,1,28.5,11Z"/>
  </g>
</svg>
