<svg xmlns="http://www.w3.org/2000/svg" viewBox="0 0 40 40">
  <defs>
    <style>.cls-916968{fill:#916968;}.cls-fff{fill:#fff;}</style>
  </defs>
  <g id="Type">
    <path class="cls-916968"
          d="M20,35.65C10.38,35.65,2.35,32.79.44,29A3.74,3.74,0,0,0,0,30.72c0,4.65,9,8.43,20,8.43s20-3.78,20-8.43A3.74,3.74,0,0,0,39.56,29C37.65,32.79,29.62,35.65,20,35.65Z"/>
    <path class="cls-916968"
          d="M20,31.64C9.9,31.64,1.58,28.49.22,24.39A3.73,3.73,0,0,0,0,25.57C0,30.22,9,34,20,34s20-3.77,20-8.42a3.73,3.73,0,0,0-.22-1.18C38.42,28.49,30.1,31.64,20,31.64Z"/>
    <path class="cls-916968"
          d="M20,27.65C9.9,27.65,1.58,24.5.22,20.4A3.73,3.73,0,0,0,0,21.58C0,26.23,9,30,20,30s20-3.77,20-8.42a3.73,3.73,0,0,0-.22-1.18C38.42,24.5,30.1,27.65,20,27.65Z"/>
    <path class="cls-916968"
          d="M20,17.42c-8.87,0-16.38-2.43-19-5.8v6.63C1.32,22.55,9.71,26,20,26s18.68-3.45,19-7.75V11.62C36.38,15,28.87,17.42,20,17.42Z"/>
    <path class="cls-916968" d="M20,15.92c10.49,0,19-3.56,19-8S30.49,0,20,0,1,3.56,1,8,9.51,15.92,20,15.92Z"/>
    <rect class="cls-fff" x="3" y="16.11" width="1" height="3.28" rx="0.4"/>
    <rect class="cls-fff" x="7" y="18.55" width="1" height="3.28" rx="0.4"/>
    <rect class="cls-fff" x="12" y="20.02" width="1" height="3.28" rx="0.4"/>
    <rect class="cls-fff" x="17" y="20.62" width="1" height="3.28" rx="0.4"/>
    <rect class="cls-fff" x="22" y="20.62" width="1" height="3.28" rx="0.4"/>
    <rect class="cls-fff" x="27" y="20.02" width="1" height="3.28" rx="0.4"/>
    <rect class="cls-fff" x="32" y="18.55" width="1" height="3.28" rx="0.4"/>
    <rect class="cls-fff" x="36" y="16.11" width="1" height="3.28" rx="0.4"/>
  </g>
</svg>
