<svg xmlns="http://www.w3.org/2000/svg" viewBox="0 0 40 40">
  <defs>
    <style>.cls-916968{fill:#916968;}</style>
  </defs>
  <g id="Type">
    <path class="cls-916968"
          d="M20,17.53c-4.71,0-8.69-1.29-10.08-3.07V35.59C9.89,37.81,14.51,40,20,40s10.08-2.19,10.08-4.41V14.46C28.66,16.24,24.68,17.53,20,17.53Z"/>
    <path class="cls-916968" d="M9.89,4.45V4.7a1.92,1.92,0,0,1,0-.22Z"/>
    <path class="cls-916968"
          d="M20,16c5.46,0,10.08-2.19,10.08-4.41V4.7C30.05,7.05,25.54,9,20,9S9.89,7.05,9.89,4.7v6.86C9.89,13.78,14.51,16,20,16Z"/>
    <path class="cls-916968" d="M30,4.48c0,.08,0,.15,0,.22V4.45S30,4.47,30,4.48Z"/>
    <ellipse class="cls-916968" cx="19.96" cy="3.8" rx="9.02" ry="3.8"/>
  </g>
</svg>
