<svg xmlns="http://www.w3.org/2000/svg" viewBox="0 0 40 40">
  <defs>
    <style>.cls-916968{fill:#916968;}</style>
  </defs>
  <g id="Type">
    <path class="cls-916968"
          d="M28.34,22.66a22.75,22.75,0,0,1-7.35.91,22.78,22.78,0,0,1-7.36-.91c-.68.27-1.06.58-1.06.91,0,1,3.41,1.83,8.42,1.83s8.41-.82,8.41-1.83C29.4,23.24,29,22.93,28.34,22.66Z"/>
    <path class="cls-916968"
          d="M28.34,18.59A22.75,22.75,0,0,1,21,19.5a22.78,22.78,0,0,1-7.36-.91c-.68.27-1.06.58-1.06.91,0,1,3.41,1.82,8.42,1.82s8.41-.81,8.41-1.82C29.4,19.17,29,18.86,28.34,18.59Z"/>
    <path class="cls-916968"
          d="M28.34,26.73a22.47,22.47,0,0,1-7.35.91,22.5,22.5,0,0,1-7.36-.91c-.68.27-1.06.58-1.06.91,0,1,3.41,1.83,8.42,1.83s8.41-.82,8.41-1.83C29.4,27.31,29,27,28.34,26.73Z"/>
    <path class="cls-916968"
          d="M14,31v3.79c0,2.68,2.1,5.21,7,5.21,4.56,0,7-2.73,7-5.21V31a23.87,23.87,0,0,1-7,.81A24.15,24.15,0,0,1,14,31Z"/>
    <path class="cls-916968"
          d="M33.36,5.59C32.13,2,28.84.62,25.2.13c.62.24,1,.43,1,1C26.18,2.35,24.07,3,21,3S15.8,2.42,15.8,1.17c0-.56.35-.8,1-1C13.13.62,9.84,2,8.61,5.59,7.84,7.85,8,13.11,8,13.11c.4,2.51,5.19,3.86,13,4,7.8-.1,12.59-1.45,13-4C34,13.11,34.13,7.85,33.36,5.59Z"/>
    <ellipse class="cls-916968" cx="20.98" cy="0.76" rx="4" ry="0.76"/>
  </g>
</svg>
