<svg xmlns="http://www.w3.org/2000/svg" viewBox="0 0 40 40">
  <defs>
    <style>.cls-fff{fill:#fff;}.cls-916968{fill:#916968;}</style>
  </defs>
  <g id="Type">
    <path class="cls-fff" d="M8,28.23v1H8c0-.33,0-.66,0-1Z"/>
    <path class="cls-fff" d="M8,29.25H8V30c0,1.25,0,1.2,0,2.24H8C8,32,8,31.67,8,31S8,29.84,8,29.25Z"/>
    <path class="cls-fff" d="M8,28.25H8c0,.33,0,.66,0,1H8C8,28.91,8,28.58,8,28.25Z"/>
    <path class="cls-916968"
          d="M21,26h0A37.69,37.69,0,0,1,8.18,24.11l.22,3.22A38.91,38.91,0,0,0,21,29.14h0A38.91,38.91,0,0,0,33.6,27.33l.22-3.22A37.69,37.69,0,0,1,21,26Z"/>
    <path class="cls-916968"
          d="M21,30.5h0A38.56,38.56,0,0,1,8.5,28.72l.22,3.21A39.27,39.27,0,0,0,21,33.64h0a39.27,39.27,0,0,0,12.27-1.71l.22-3.21A38.56,38.56,0,0,1,21,30.5Z"/>
    <path class="cls-916968"
          d="M21,24.64h0c5.35,0,10.06-.78,13-2,0-.71,0-.81,0-1.91,0-5.2-.18-12.29-.61-13.58C32.13,3.54,29,0,21,0h0C13,0,9.85,3.54,8.61,7.18,8.18,8.47,8,15.56,8,20.76c0,1.1,0,1.2,0,1.9C10.91,23.85,15.63,24.63,21,24.64Z"/>
    <path class="cls-916968"
          d="M21,35h0A39.41,39.41,0,0,1,8.81,33.33L9,36c0,2.21,5.43,4,12,4s12-1.79,12-4l.19-2.67A39.41,39.41,0,0,1,21,35Z"/>
    <ellipse class="cls-fff" cx="21" cy="3" rx="5" ry="1"/>
    <path class="cls-916968" d="M34,23h0v0Z"/>
    <path class="cls-fff" d="M34,28.23l0,0c0,.33,0,.66,0,1h0Z"/>
    <path class="cls-fff" d="M34,31c0,.66,0,1,0,1.24h0c0-1,0-1,0-2.24v-.77h0C34,29.84,34,30.43,34,31Z"/>
    <path class="cls-fff" d="M34,28.25c0,.33,0,.66,0,1h0c0-.33,0-.66,0-1Z"/>
  </g>
</svg>
