<svg xmlns="http://www.w3.org/2000/svg" viewBox="0 0 40 40">
  <defs>
    <style>.cls-916968{fill:#916968;}.cls-fff{fill:#fff;}</style>
  </defs>
  <g id="Type">
    <path class="cls-916968"
          d="M20,10.33c-5.13,0-9.48-1.41-11-3.36V17.18C9,19.6,14,22,20,22s11-2.39,11-4.81V7C29.48,8.92,25.13,10.33,20,10.33Z"/>
    <path class="cls-916968"
          d="M20,23c-5.13,0-9.48-1.41-11-3.35V35.19C9,37.61,14,40,20,40s11-2.39,11-4.81V19.67C29.48,21.61,25.13,23,20,23Z"/>
    <path class="cls-916968" d="M20,9.26c6.08,0,11-2.07,11-4.63S26.07,0,20,0,9,2.07,9,4.63,13.92,9.26,20,9.26Z"/>
    <rect class="cls-fff" x="12" y="11.55" width="1" height="4" rx="0.45"/>
    <rect class="cls-fff" x="17" y="13" width="1" height="4" rx="0.45"/>
    <rect class="cls-fff" x="22" y="13" width="1" height="4" rx="0.45"/>
    <rect class="cls-fff" x="27" y="11.55" width="1" height="4" rx="0.45"/>
  </g>
</svg>
