<svg xmlns="http://www.w3.org/2000/svg" viewBox="0 0 40 40">
  <defs>
    <style>.cls-916968{fill:#916968;}.cls-fff{fill:#fff;}</style>
  </defs>
  <g id="Type">
    <ellipse class="cls-916968" cx="20.03" cy="3.65" rx="10.03" ry="3.65"/>
    <path class="cls-916968"
          d="M33,6.13a3.46,3.46,0,0,0-1.43-2.74h0a2.26,2.26,0,0,1,.36,1.2c0,2.53-4.73,4.59-11.68,4.59H19.8c-7,0-11.69-2.06-11.69-4.59a2.28,2.28,0,0,1,.37-1.2h0A3.47,3.47,0,0,0,7,6.13a54.87,54.87,0,0,0,.5,7.1C7.76,15,9.27,16.39,12,17.31V30.45A117.94,117.94,0,0,1,26.18,20C16.51,28.16,13,32.36,12,33.72V36h.05c0,2.21,3.57,4,8,4s8-1.79,8-4V17.31c2.75-.91,4.26-2.36,4.49-4.08A53.11,53.11,0,0,0,33,6.13Z"/>
    <circle class="cls-fff" cx="12.5" cy="11.5" r="0.5"/>
    <circle class="cls-fff" cx="21.5" cy="12.5" r="0.5"/>
    <circle class="cls-fff" cx="28.5" cy="10.5" r="0.5"/>
    <circle class="cls-fff" cx="26.5" cy="14.5" r="0.5"/>
    <circle class="cls-fff" cx="21.5" cy="31.5" r="0.5"/>
    <circle class="cls-fff" cx="24.5" cy="35.5" r="0.5"/>
    <circle class="cls-fff" cx="25.5" cy="27.5" r="0.5"/>
    <circle class="cls-fff" cx="16.5" cy="21.5" r="0.5"/>
  </g>
</svg>
