<svg xmlns="http://www.w3.org/2000/svg" viewBox="0 0 40 40">
  <defs>
    <style>.cls-916968{fill:#916968;}.cls-fff{fill:#fff;}</style>
  </defs>
  <g id="Type">
    <path class="cls-916968"
          d="M30,19a1,1,0,0,1,1-1V7.3c-1.56,1.34-4.81,2.34-8.75,2.62h-.12l-.94.05L20,10h0c-4.92,0-9.15-1.11-11-2.7V14a1,1,0,0,1,0,2v7a1,1,0,0,1,0,2V36h.07c0,2.21,4.91,4,11,4s11-1.79,11-4V20A1,1,0,0,1,30,19Z"/>
    <ellipse class="cls-916968" cx="20" cy="4" rx="10.97" ry="4"/>
    <circle class="cls-fff" cx="24.86" cy="15.86" r="1"/>
    <circle class="cls-fff" cx="24" cy="22" r="1"/>
    <circle class="cls-fff" cx="17" cy="27" r="1"/>
    <circle class="cls-fff" cx="22" cy="33" r="1"/>
    <circle class="cls-fff" cx="15" cy="35" r="1"/>
    <circle class="cls-fff" cx="14" cy="20" r="1"/>
    <circle class="cls-fff" cx="12" cy="30" r="1"/>
    <circle class="cls-fff" cx="17" cy="13" r="1"/>
    <circle class="cls-fff" cx="29" cy="28" r="1"/>
  </g>
</svg>
