<svg xmlns="http://www.w3.org/2000/svg" viewBox="0 0 56 114">
  <defs>
    <style>.cls-ba9d9c{fill:#ba9d9c;}</style>
  </defs>
  <g id="Type">
    <path class="cls-ba9d9c"
          d="M49.08,55.39c3.36-9.55,2.32-23-3.37-43.65a.14.14,0,0,0,0-.07.84.84,0,0,0-.24-.34l-.16-.09h0l-.09,0C35.07,8,20.93,8,10.8,11.21a.13.13,0,0,0-.08,0h0a.59.59,0,0,0-.17.1.68.68,0,0,0-.24.33.14.14,0,0,0,0,.07C4.6,32.38,3.56,45.84,6.92,55.39c3,8.53,9.29,13.13,16.66,18.25a1.27,1.27,0,0,0-.06.41c0,1,.75,1.5,1.66,1.77,0,3.7.07,7.87.11,11.9.08,7.18.16,14,.07,15.63-.05,1-.12,1.84-.22,2.57-3.54.15-13.62.85-13.62,4S21.88,114,28,114s16.48-.87,16.48-4.07-10.08-3.86-13.62-4c-.1-.73-.17-1.57-.22-2.57-.09-1.67,0-8.45.07-15.63,0-4,.09-8.2.11-11.9.91-.27,1.66-.78,1.66-1.77a1.27,1.27,0,0,0-.06-.41C39.78,68.53,46.07,63.93,49.08,55.39ZM42.17,11.93a64.23,64.23,0,0,1-28.34,0A64.53,64.53,0,0,1,42.17,11.93ZM31.39,110a.75.75,0,0,0,.35-1,8.94,8.94,0,0,1-.56-1.48c7.87.34,11.62,1.79,11.8,2.47-.23.89-5.57,2.55-15,2.56s-14.75-1.67-15-2.54c.18-.7,3.93-2.15,11.8-2.49a8.94,8.94,0,0,1-.56,1.48.75.75,0,1,0,1.35.66,10.6,10.6,0,0,0,.82-2.35l.18-1c.12-.83.2-1.75.26-2.85.09-1.72,0-8.21-.07-15.72,0-3.94-.09-8-.11-11.63.51,0,1,0,1.31,0s.8,0,1.31,0c0,3.62-.07,7.69-.11,11.63-.08,7.51-.16,14-.07,15.72.06,1.1.14,2,.26,2.85l.18,1a10.6,10.6,0,0,0,.82,2.35A.75.75,0,0,0,31.39,110ZM25.6,74.34a12.87,12.87,0,0,0,2.4.16,12.87,12.87,0,0,0,2.4-.16,6.77,6.77,0,0,1-4.8,0Zm5.34-1.51c-.25,0-.52,0-.82.08a16.44,16.44,0,0,1-2.12.16,16.44,16.44,0,0,1-2.12-.16c-.3,0-.57-.07-.82-.08C10,62.33,0,55.24,11.54,12.89a64.44,64.44,0,0,0,32.92,0C56,55.24,46,62.33,30.94,72.83Zm-22.63-26h0C8.31,59.2,22,71.11,28,71.11S48,58.7,48,46.87h0C43.69,45,12.62,45,8.31,46.86Z"/>
  </g>
</svg>
