<svg xmlns="http://www.w3.org/2000/svg" viewBox="0 0 56 114">
  <defs>
    <style>.cls-e5e5e5{fill:#e5e5e5;}</style>
  </defs>
  <g id="Type">
    <path class="cls-e5e5e5"
          d="M47.52,46.77c2.35-8.9,1.27-22-3.5-42.59,0,0,0,0,0-.08a.89.89,0,0,0-.28-.41l-.16-.1-.09,0C34.36.13,21.64.13,12.53,3.55l-.1,0-.16.11a.86.86,0,0,0-.27.4.24.24,0,0,0,0,.08C7.21,24.73,6.13,37.87,8.48,46.77,10.7,55.21,15.93,59.42,22,64.29l1.88,1.53a1.88,1.88,0,0,0-.05.43A1.92,1.92,0,0,0,25,68c.14,25.79.49,31.6-.06,35.76-7.35.31-15.58,1.81-15.58,5.08,0,6.85,37.28,6.85,37.28,0,0-3.27-8.23-4.77-15.58-5.08-.55-4.19-.2-10.2-.06-35.76a1.92,1.92,0,0,0,1.19-1.77,1.45,1.45,0,0,0,0-.43L34,64.29C40.07,59.42,45.3,55.21,47.52,46.77ZM40.4,4.36a48.27,48.27,0,0,1-24.8,0A48.48,48.48,0,0,1,40.4,4.36Zm-8.91,104a.86.86,0,0,0,.47-1.13,11.58,11.58,0,0,1-.56-1.66c9,.42,13.5,2.33,13.5,3.33,0,4.43-33.8,4.43-33.8,0,0-1,4.51-2.91,13.5-3.33a12,12,0,0,1-.56,1.66.86.86,0,0,0,.46,1.13.87.87,0,0,0,1.14-.46,14.3,14.3,0,0,0,.9-3.07v0c.71-4.16.34-10,.19-36.3a15.15,15.15,0,0,0,2.52,0c-.15,26.27-.52,32.13.19,36.3v0a14,14,0,0,0,.9,3.07A.86.86,0,0,0,31.49,108.32Zm-1-43.42-.66.09a10.57,10.57,0,0,1-3.72,0l-.66-.09-2.41-2C11.1,53.3,3.84,47.46,13.45,5.51a48.48,48.48,0,0,0,29.1,0c9.61,42,2.35,47.79-9.62,57.43ZM45.78,43.78h0c-7.61-2.5-27.93-2.5-35.55,0h0C11.12,51.37,20.57,62.69,28,62.69h0c7.46,0,17-11.14,17.78-18.91Z"/>
  </g>
</svg>
