<svg xmlns="http://www.w3.org/2000/svg" viewBox="0 0 56 114">
  <defs>
    <style>.cls-ba9d9c{fill:#ba9d9c;}</style>
  </defs>
  <g id="Type">
    <path class="cls-ba9d9c"
          d="M31.09,105.08c-.5-1.36-.35-1.15-.35-28.52A20.38,20.38,0,0,1,34.31,64.8c6.76-10,9.95-21,6.25-47.65v0h0a.87.87,0,0,0-.28-.5c-1.89-1.67-7-1.87-12.27-1.83S17.61,15,15.73,16.62a.81.81,0,0,0-.28.5h0v0c-3.7,26.61-.51,37.62,6.25,47.64a20.38,20.38,0,0,1,3.57,11.76c0,27.54.15,27.16-.35,28.52-3.5.24-12.41,1.18-12.41,4.43,0,6,31,6,31,0C43.5,106.26,34.6,105.32,31.09,105.08ZM28,16.52h0c2.12,0,7.12-.05,9.76.74-2.41.75-6.53.76-9.7.76h-.14c-3.17,0-7.29,0-9.7-.76C20.87,16.47,25.87,16.51,28,16.52Zm-13.75,93c0-.54,2.61-1.93,8.94-2.56a.87.87,0,0,0,1.17,1c3.84-1.5,2.65-5.49,2.65-31.35a22.1,22.1,0,0,0-3.86-12.72c-6.43-9.52-9.51-20-6.15-45.2,2.67,1.1,7.19,1.11,10.93,1.11h.16c3.74,0,8.25,0,10.92-1.11,3.37,25.17.29,35.68-6.14,45.2A22.1,22.1,0,0,0,29,76.56c0,25.74-1.22,29.84,2.64,31.35a.87.87,0,0,0,1.17-1c6.34.63,8.95,2,8.95,2.56C41.76,113.07,14.24,113.06,14.24,109.51ZM37,52.19c1.81-7,2-14.35,2-21.33,0-1.69-22-2.13-22,0a80.46,80.46,0,0,0,2,21.33c1.29,5,3.1,8.34,5.39,10.05a5.54,5.54,0,0,0,7.15,0Q35.05,59.68,37,52.19Z"/>
  </g>
</svg>
