<svg xmlns="http://www.w3.org/2000/svg" viewBox="0 0 56 114">
  <defs>
    <style>.cls-ba9d9c{fill:#ba9d9c;}</style>
  </defs>
  <g id="Type">
    <path class="cls-ba9d9c"
          d="M31.68,104.9c-1.1-2.85-1.1-6.08-.8-35.47a1.93,1.93,0,0,0,1.31-1.82,2,2,0,0,0-.32-1.06C39.81,62.84,50.11,51.8,41.78,19v0a.86.86,0,0,0-.43-.52c-4.53-2.4-22.15-2.4-26.68,0a.86.86,0,0,0-.43.52v0c-8.33,32.78,2,43.82,9.91,47.53a2,2,0,0,0-.32,1.06,1.93,1.93,0,0,0,1.31,1.82c.3,29.89.28,32.68-.8,35.47-4.19.19-14.92,1-14.92,4.51,0,6.13,37.2,6.12,37.2,0C46.6,105.93,35.87,105.09,31.68,104.9Zm7-85.67c-3.6,1.12-17.68,1.12-21.28,0C21,18.09,35,18.08,38.64,19.23Zm-23,1.23c4.49,1.83,20.21,1.83,24.7,0,5.92,24.09,2.28,40-10.26,45a9.51,9.51,0,0,0-4.18,0C13.37,60.49,9.73,44.55,15.65,20.46ZM30.46,67.61c0,.19-.54.33-.65.36a10,10,0,0,1-3.61,0h0c-.13,0-.63-.17-.63-.35s.42-.38.6-.44h0C27.5,66.72,30.46,67,30.46,67.61ZM11.13,109.42c.2-.74,4.1-2.27,12.21-2.74-.14.19-.29.39-.45.58a.87.87,0,1,0,1.33,1.11,10.58,10.58,0,0,0,1.42-2.19.2.2,0,0,0,0-.08c1.71-3.66,1.45-8.93,1.17-36.28a14.59,14.59,0,0,0,2.29,0c-.26,26.79-.58,32.54,1.18,36.29l0,.07a10.76,10.76,0,0,0,1.43,2.19.87.87,0,1,0,1.33-1.11c-.16-.19-.31-.39-.45-.58,8.12.47,12,2,12.21,2.71C43.89,113.14,12.12,113.12,11.13,109.42Zm30.5-63c-2.48-.72-24.76-.72-27.26,0,0,4.39,4.65,18.17,13.63,18C37,64.56,41.63,50.82,41.63,46.39Z"/>
  </g>
</svg>
