<svg xmlns="http://www.w3.org/2000/svg" viewBox="0 0 56 114">
  <defs>
    <style>.cls-e5e5e5{fill:#e5e5e5;}</style>
  </defs>
  <g id="Type">
    <path class="cls-e5e5e5"
          d="M48.4,51.92c2.5-9.63.86-22.45-5.31-41.56a.14.14,0,0,0,0-.07,1,1,0,0,0-.31-.39l-.14-.08-.06,0C29.8,5,13.5,8.77,12.92,10.29a1.21,1.21,0,0,0-.05.18c-6.14,19-7.76,31.84-5.27,41.45,2.31,8.92,7.93,14.41,16.25,20.27a1.51,1.51,0,0,0,0,.32,2.69,2.69,0,0,0,1.47,2.26c.11,8.91.76,22.24-.1,28.35-8,.34-15.75,2.12-15.75,5.42,0,7.29,37.12,7.27,37.12,0,0-3.3-7.78-5.08-15.74-5.42C30,97,30.6,83.68,30.71,74.77a2.7,2.7,0,0,0,1.47-2.26,1.51,1.51,0,0,0,0-.32C40.47,66.34,46.09,60.84,48.4,51.92ZM39.5,10.61a45.32,45.32,0,0,1-23,0C20.72,9.5,30.24,7.94,39.5,10.61Zm-7.06,95.94a.87.87,0,0,0-.87-.75,2.31,2.31,0,0,1-.4-.93c9.09.44,13.66,2.55,13.66,3.67,0,4.89-33.66,4.88-33.66,0,0-1.12,4.57-3.23,13.67-3.67a2.41,2.41,0,0,1-.41.93.86.86,0,0,0-.87.75c-.16,1.21,2.38,2.21,3.21-2.42v0c1-5.83.38-19.43.24-28.73a6.44,6.44,0,0,0,2,0c-.14,9.28-.79,22.83.24,28.68a.5.5,0,0,0,0,.12C30.06,108.74,32.61,107.77,32.44,106.55Zm-2.9-33.12,0,0a4.46,4.46,0,0,1-3,0l0,0a1.54,1.54,0,0,1-.86-.73c0-.24,4.82-.26,4.81,0A1.65,1.65,0,0,1,29.54,73.43ZM30.82,71A20.34,20.34,0,0,0,28,70.88a20.61,20.61,0,0,0-2.82.13C17,65.29,11.48,60,9.27,51.48c-2.34-9-.75-21.67,5-39.75a45.4,45.4,0,0,0,27.44,0c5.76,18.08,7.35,30.73,5,39.75C44.52,60,39,65.29,30.82,71ZM10,51.64C12.87,62.26,23.08,70.06,28,70s15.13-7.74,18-18.36C38,49.44,18.12,49.41,10,51.64Z"/>
  </g>
</svg>
