<svg xmlns="http://www.w3.org/2000/svg" viewBox="0 0 56 114">
  <defs>
    <style>.cls-e5e5e5{fill:#e5e5e5;}</style>
  </defs>
  <g id="Type">
    <path class="cls-e5e5e5"
          d="M47.84,10.14l0-.07a.84.84,0,0,0-.3-.37.56.56,0,0,0-.17-.09l-.06,0C36.23,6,19.75,6,8.72,9.58l-.05,0a.72.72,0,0,0-.19.11.79.79,0,0,0-.29.36l0,.07c-7,20.53-9.07,34.23-6.37,43.1C5,63.89,14.34,66.73,23.86,72.86a1.13,1.13,0,0,0,.12.21,3.54,3.54,0,0,0,1.31,1.09c0,7.89.13,13.92.2,18.35.09,6.82.14,10.37,0,12.39-4,.13-16.06.83-16.06,4.53S21.08,114,28,114s18.61-1,18.61-4.57S34.55,105,30.55,104.9c-.19-2-.13-5.56,0-12.39.07-4.43.16-10.46.2-18.35A3.46,3.46,0,0,0,32,73.07a.94.94,0,0,0,.12-.22c9.52-6.12,18.82-9,22.07-19.61C56.91,44.37,54.89,30.67,47.84,10.14Zm-4,.27a71.35,71.35,0,0,1-31.72,0A71.35,71.35,0,0,1,43.86,10.41ZM30.73,109.25a.88.88,0,0,0,1.23,0,.87.87,0,0,0,0-1.22,3.26,3.26,0,0,1-1-1.34c8.89.32,13.76,1.93,14,2.77-.27,1-6.32,2.84-16.88,2.86s-16.61-1.87-16.88-2.83c.24-.86,5.12-2.49,14-2.8a3.26,3.26,0,0,1-1,1.34.87.87,0,0,0,1.19,1.27,4.91,4.91,0,0,0,1.81-3.38c.3-2,.25-5.57.14-13.38-.06-4.35-.15-10.24-.2-17.91a12.82,12.82,0,0,0,2,0c-.05,7.67-.14,13.56-.2,17.91-.11,7.73-.16,11.3.13,13.32,0,0,0,.08,0,.12A4.86,4.86,0,0,0,30.73,109.25Zm.57-37.92c-.78-.2-1.7.16-3.3.16-.85,0-2.55-.23-2.79-.23a1.72,1.72,0,0,0-.52.07C8.19,60.75-7,60.3,9.53,11.49c10.73,3.25,26.19,3.25,36.94,0C63.05,60.3,47.81,60.75,31.3,71.33ZM4.39,52.09h0C6,58.61,12.06,63.6,18.92,66.93a31,31,0,0,0,5.54,2.29,8.89,8.89,0,0,0,7.08,0,31,31,0,0,0,5.54-2.29C43.94,63.6,50,58.61,51.61,52.1h0C40.74,50.33,16.1,50.19,4.39,52.09Z"/>
  </g>
</svg>
