<svg xmlns="http://www.w3.org/2000/svg" viewBox="0 0 40 40">
  <defs>
    <style>.cls-916968{fill:#916968;}</style>
  </defs>
  <g id="Type">
    <path class="cls-916968"
          d="M27.87,3.8C27.25,1.3,23.65.06,20,0S12.75,1.3,12.13,3.8c-3.51.81-5.49,4.11-5.07,8.11.15,1.43,1.19,5.63,1.19,5.63l.22.91c0,6.47,2,13.11,6.87,20.15C16,39.56,18,40,20,40s4-.44,4.66-1.4c4.83-7,6.87-13.68,6.87-20.15l.22-.91s1-4.2,1.19-5.63C33.36,7.91,31.38,4.61,27.87,3.8ZM15.09,10l-4.32,4.79s-.47-1.83-.54-2.46c-.31-2.86,0-5.52,4-5.75A3.86,3.86,0,0,1,15.09,10ZM20,4.76c-4.75-.07-4.81-2.19,0-2.28C24.81,2.57,24.75,4.69,20,4.76Zm9.77,7.52c-.07.63-.54,2.46-.54,2.46L24.91,10a3.86,3.86,0,0,1,.89-3.42C29.73,6.76,30.08,9.42,29.77,12.28Z"/>
  </g>
</svg>
