<svg xmlns="http://www.w3.org/2000/svg" viewBox="0 0 40 40">
  <defs>
    <style>.cls-916968{fill:#916968;}</style>
  </defs>
  <g id="Type">
    <path class="cls-916968"
          d="M40,20.06c0-1.84-1.49-3-2.58-3.82-.25-.19-.61-.46-.82-.66.09-.3.27-.75.4-1.05.51-1.24,1.21-2.95.31-4.51s-2.74-1.81-4.09-2c-.33,0-.79-.11-1.08-.18-.07-.29-.13-.75-.17-1.07-.18-1.35-.43-3.19-2-4.1s-3.27-.2-4.51.31l-1,.43a9.05,9.05,0,0,1-.69-.85C22.92,1.49,21.78,0,19.94,0s-3,1.49-3.81,2.58c-.19.25-.47.61-.66.82-.3-.09-.75-.27-1.05-.4-1.25-.51-2.95-1.21-4.51-.31s-1.81,2.74-2,4.09c0,.33-.1.79-.17,1.08C7.46,7.93,7,8,6.67,8c-1.34.18-3.19.43-4.1,2s-.19,3.26.32,4.51c.13.32.34.83.43,1a9.25,9.25,0,0,1-.86.69c-1.08.84-2.57,2-2.57,3.82s1.49,3,2.57,3.81c.26.19.61.47.82.66a11.16,11.16,0,0,1-.39,1c-.51,1.25-1.22,3-.32,4.51s2.75,1.81,4.1,2c.33,0,.79.1,1.08.17.07.29.13.75.17,1.08.18,1.34.42,3.19,2,4.1s3.26.19,4.51-.32c.32-.13.83-.34,1-.43.2.2.49.59.7.86.83,1.08,2,2.57,3.81,2.57s3-1.49,3.82-2.57c.19-.26.46-.61.66-.83.3.09.75.28,1,.4,1.24.51,3,1.22,4.51.32s1.81-2.75,2-4.1c0-.33.11-.79.18-1.08.29-.07.75-.13,1.07-.17,1.35-.18,3.19-.42,4.1-2s.2-3.26-.31-4.51c-.14-.32-.35-.83-.44-1,.21-.2.59-.49.86-.7C38.51,23,40,21.9,40,20.06ZM20,33.11a13,13,0,1,1,13-13A13,13,0,0,1,20,33.11Z"/>
    <path class="cls-916968"
          d="M28.82,17a1.9,1.9,0,0,0-1.73-1.11H23.61a.87.87,0,0,1-.83-.55l-1-3.6a1.91,1.91,0,0,0-3.67,0l-1,3.51a.87.87,0,0,1-.85.64H12.75A1.9,1.9,0,0,0,11,17.08a2.27,2.27,0,0,0,0,1.78,1.87,1.87,0,0,0,.63.76l2.87,2.08a.88.88,0,0,1,.33,1l-1,2.94a1.87,1.87,0,0,0,.67,2.14,1.84,1.84,0,0,0,1.13.37,1.87,1.87,0,0,0,1.12-.36l2.69-2a.9.9,0,0,1,.52-.17.87.87,0,0,1,.52.17l2.7,2a1.87,1.87,0,0,0,1.12.36,1.91,1.91,0,0,0,1.13-.37,1.88,1.88,0,0,0,.67-2.14l-1-2.88a.9.9,0,0,1,.32-1l2.91-2.12a1.86,1.86,0,0,0,.72-2A2.93,2.93,0,0,0,28.82,17Z"/>
  </g>
</svg>
