<svg xmlns="http://www.w3.org/2000/svg" viewBox="0 0 40 40">
  <defs>
    <style>.cls-916968{fill:#916968;}</style>
  </defs>
  <g id="Type">
    <path class="cls-916968"
          d="M31.06,5.05a55.32,55.32,0,0,0-7.28-.88c-3.17,3.21-5.32,9.25-5.32,16.18,0,6.52,1.91,12.27,4.79,15.59a56.28,56.28,0,0,0,7.81-.9c-3-1.73-5.26-7.78-5.26-15S28,6.77,31.06,5.05Z"/>
    <path class="cls-916968"
          d="M20.77,4.08h-.18a57.13,57.13,0,0,0-7.53.5c-3.37,3-5.68,8.91-5.68,15.77,0,6.34,2,11.9,5,15a56,56,0,0,0,8,.61,28.44,28.44,0,0,1-4.27-15.65C16.09,13.81,17.92,8,20.77,4.08Z"/>
    <path class="cls-916968"
          d="M9.36,5.21c-.69.14-1.39.27-2.06.44C3.27,5.65,0,12.09,0,20S3.27,34.43,7.3,34.43c.51.13,1,.23,1.56.34A27,27,0,0,1,5,20.35,26.34,26.34,0,0,1,9.36,5.21Z"/>
    <path class="cls-916968"
          d="M34.32,6.59a3.75,3.75,0,0,0-2.91,1.93,1.89,1.89,0,0,1,1.12-.41c2.42,0,4.39,5.34,4.39,11.93S35,32,32.53,32a1.89,1.89,0,0,1-1.12-.41,3.75,3.75,0,0,0,2.91,1.93c3.14,0,5.68-6,5.68-13.45S37.46,6.59,34.32,6.59Z"/>
    <path class="cls-916968" d="M33.19,27c.65,0,1.18-1.34,1.18-3s-.53-3-1.18-3S32,22.34,32,24,32.53,27,33.19,27Z"/>
  </g>
</svg>
