<svg xmlns="http://www.w3.org/2000/svg" viewBox="0 0 40 40">
  <defs>
    <style>.cls-916968{fill:#916968;}</style>
  </defs>
  <g id="Type">
    <path class="cls-916968"
          d="M12.74,10a8.77,8.77,0,0,0,.71,1.6.67.67,0,0,0,.23.27c.16.11.32.22.49.32.41.25.82.49,1.24.72s1.08.6,1.62.9c0,0,.11.08.19,0s0-.1,0-.15a7.55,7.55,0,0,0-.53-1.44A15.75,15.75,0,0,0,15.1,9.57a1.19,1.19,0,0,1-.22-.47,8.5,8.5,0,0,1-.25-1.87c0-.16,0-.32,0-.49a6,6,0,0,1,.27-1.63,5.56,5.56,0,0,1,.91-1.9,4.09,4.09,0,0,1,.68-.7,7.5,7.5,0,0,1,2-1,3.77,3.77,0,0,1,1.2-.29,6,6,0,0,1,1.53.07,9.24,9.24,0,0,1,1.52.48,4.49,4.49,0,0,1,.91.44,5.22,5.22,0,0,1,1.95,2.43,5.94,5.94,0,0,1,.34,3.23,5.37,5.37,0,0,1-1,2.38c-.29.4-.61.79-.91,1.19a9.52,9.52,0,0,0-1.13,1.86.66.66,0,0,0,0,.55.37.37,0,0,0,.44,0,3.22,3.22,0,0,1,.36-.24,26.4,26.4,0,0,1,3-1.6.63.63,0,0,0,.26-.19,8.77,8.77,0,0,0,.54-.81A7,7,0,0,0,28,9.67a7.22,7.22,0,0,0,.27-1.53,6.86,6.86,0,0,0-.14-1.75,7.75,7.75,0,0,0-.94-2.52A7.27,7.27,0,0,0,24.52,1.2a8.56,8.56,0,0,0-1.6-.73A8.76,8.76,0,0,0,20.6,0a8.22,8.22,0,0,0-2,.15,7.9,7.9,0,0,0-2,.7,8.18,8.18,0,0,0-2.19,1.69,8,8,0,0,0-1.27,1.81,7.44,7.44,0,0,0-.75,2.44,8.35,8.35,0,0,0,0,1.5A7.23,7.23,0,0,0,12.74,10Z"/>
    <path class="cls-916968"
          d="M37.61,18.4a6.61,6.61,0,0,0-.9-2.16,6,6,0,0,0-1.36-1.48,5.87,5.87,0,0,0-2.14-1.09,5.76,5.76,0,0,0-1.38-.22,9.65,9.65,0,0,0-2,.22,16.36,16.36,0,0,0-2.74.84c-.73.29-1.46.62-2.16,1-1.08.55-2.12,1.16-3.14,1.8a1.35,1.35,0,0,1-.47.22.33.33,0,0,1-.25-.23c0-.12-.08-.23-.11-.34-.15-.56-.3-1.12-.44-1.67a5,5,0,0,1-.15-.94,7.39,7.39,0,0,1,0-1.33,4.4,4.4,0,0,1,.19-.89,5.81,5.81,0,0,1,1.24-2,12.24,12.24,0,0,0,1.12-1.48,3.58,3.58,0,0,0,.45-1.31,2.66,2.66,0,0,0-.1-1.4A3.06,3.06,0,0,0,20,4a3,3,0,0,0-.73.12,3.7,3.7,0,0,0-1.12.52,3,3,0,0,0-.49.45A3.05,3.05,0,0,0,17,7.56a4.19,4.19,0,0,0,.9,2,5.14,5.14,0,0,1,.8,1.22,2.17,2.17,0,0,1,.17,1.46,4.28,4.28,0,0,0-.11,1.07,17.82,17.82,0,0,0,0,1.79c0,.44.07.87.14,1.3.06.27.13.55.19.82a1.08,1.08,0,0,1,0,.18c-.27.09-.28.09-.52-.09a34.91,34.91,0,0,0-3.42-2.2,18.12,18.12,0,0,0-2.08-1,12.81,12.81,0,0,0-2-.67,9.89,9.89,0,0,0-2-.31L9,13.1c-.17,0-.33,0-.49,0-.36,0-.72.06-1.07.11A6.79,6.79,0,0,0,5,14a4.33,4.33,0,0,0-1.7,1.67,6.18,6.18,0,0,0-.8,2.57,6.69,6.69,0,0,0,.32,2.7,6.24,6.24,0,0,0,3,3.58,8.29,8.29,0,0,0,2.05.76A5,5,0,0,0,9,25.42a8.67,8.67,0,0,0,1.13-.12,13,13,0,0,0,2-.47,23.49,23.49,0,0,0,2.54-.94c.64-.29,1.27-.6,1.89-.94a13.51,13.51,0,0,0,1.58-1l.67-.51a.26.26,0,0,1,.33-.05.82.82,0,0,1,.13.77,5.69,5.69,0,0,1-.16.59c-.1.33-.19.65-.29,1A8.21,8.21,0,0,1,18.3,25a5.51,5.51,0,0,1-.81,1.22,1.23,1.23,0,0,1-.52.32,19.21,19.21,0,0,0-2.08.77,8.84,8.84,0,0,0-1.67.94,7.38,7.38,0,0,0-1.64,1.66c-.21.29-.39.61-.57.92a.59.59,0,0,0,0,.59.43.43,0,0,0,.55-.21,3.85,3.85,0,0,1,.88-.92A9.12,9.12,0,0,1,15.1,28.9a17.72,17.72,0,0,1,2.14-.56,1.64,1.64,0,0,1,.73,0,.65.65,0,0,1,.19.52,6.09,6.09,0,0,0,.22,1.41,8.57,8.57,0,0,0,.68,1.83,5.7,5.7,0,0,0,.71,1.05.23.23,0,0,0,.27.11c0-.09,0-.19,0-.29s0-.48,0-.71c0-.39,0-.78.05-1.17a12.09,12.09,0,0,1,.09-1.21,6.15,6.15,0,0,1,.19-.95,3,3,0,0,1,.19-.45.48.48,0,0,1,.49-.3,6.74,6.74,0,0,1,1.27.11c.39.07.79.14,1.18.25a12.08,12.08,0,0,1,1.73.66,10.67,10.67,0,0,1,1.58.89,7.08,7.08,0,0,1,1.59,1.45,2.49,2.49,0,0,0,.22.23.23.23,0,0,0,.26-.1.27.27,0,0,0,0-.26,1.19,1.19,0,0,0-.13-.25c-.11-.18-.23-.35-.34-.52a10,10,0,0,0-1.19-1.55,6.7,6.7,0,0,0-1.47-1.13,14.33,14.33,0,0,0-2-.86l-1.93-.7A1.18,1.18,0,0,1,21.05,25c0-.24.07-.47.11-.71l.27-1.84a1.48,1.48,0,0,1,.1-.27.24.24,0,0,1,.38-.11l.23.17c.29.23.56.46.85.67A15.9,15.9,0,0,0,24.79,24a14.73,14.73,0,0,0,1.8.84,13.08,13.08,0,0,0,2.76.74,11.22,11.22,0,0,0,2.09.09,6.91,6.91,0,0,0,.9-.11A7,7,0,0,0,34.06,25a7.72,7.72,0,0,0,2.06-1.42,5.43,5.43,0,0,0,1.62-3.37A5.24,5.24,0,0,0,37.61,18.4ZM18.33,19.8a1.26,1.26,0,0,1-.24.22,19.62,19.62,0,0,1-4.5,2.55,13.63,13.63,0,0,1-2.44.7,9.84,9.84,0,0,1-1.23.14,3,3,0,0,1-.42,0A6.37,6.37,0,0,1,7,23a2.61,2.61,0,0,1-1-.72,6.29,6.29,0,0,1-1.16-1.88,5.4,5.4,0,0,1-.26-1.14,3.74,3.74,0,0,1,.08-1.16,3,3,0,0,1,.63-1.27,3.73,3.73,0,0,1,1.52-1.15,7.27,7.27,0,0,1,1.29-.36,7.93,7.93,0,0,1,1.61-.18,9,9,0,0,1,1.94.22,11.69,11.69,0,0,1,2.69,1,21.53,21.53,0,0,1,2,1.15,17,17,0,0,1,1.76,1.3,1.83,1.83,0,0,1,.32.36A.53.53,0,0,1,18.33,19.8ZM20,9.16a.85.85,0,0,1-.27-.23A3.83,3.83,0,0,1,18.86,7a2.06,2.06,0,0,1,.14-1,1.44,1.44,0,0,1,.88-.8A1.32,1.32,0,0,1,21,5.4c.39.25.49.8.5,1.47a2.54,2.54,0,0,1-.35,1.21c-.14.28-.32.54-.49.81a1,1,0,0,1-.25.25A.33.33,0,0,1,20,9.16ZM35.1,21.45c-.09.19-.19.36-.29.55a2.33,2.33,0,0,1-.73.86,5.29,5.29,0,0,1-2.58,1.08,6.31,6.31,0,0,1-1.94-.05A10.82,10.82,0,0,1,26.84,23a19.23,19.23,0,0,1-2.48-1.36l-2.13-1.39a1.5,1.5,0,0,1-.51-.58.46.46,0,0,1,0-.44A1.09,1.09,0,0,1,22,19c.52-.24,1-.56,1.5-.84a33.56,33.56,0,0,1,3.09-1.61,12.35,12.35,0,0,1,2.73-.85,8.05,8.05,0,0,1,1.3-.11,7.71,7.71,0,0,1,2,.22A3.81,3.81,0,0,1,35,17.41a3.31,3.31,0,0,1,.61,1.9A5,5,0,0,1,35.1,21.45Z"/>
    <path class="cls-916968"
          d="M36.33,27.43a23.67,23.67,0,0,1-2.45,2.13,25.63,25.63,0,0,1-2.78,1.83,24,24,0,0,1-2.16,1.06,25.07,25.07,0,0,1-2.51.91c-.46.14-.92.27-1.38.37s-1,.23-1.51.29-.77.13-1.16.17-1.06.1-1.59.12H19c-.18,0-.37,0-.55,0a14.48,14.48,0,0,1-1.85-.18c-.4-.06-.79-.14-1.18-.22s-.6-.12-.89-.19-.7-.18-1-.29c-.55-.17-1.1-.35-1.63-.56a19.32,19.32,0,0,1-2.48-1.17c-.55-.31-1.09-.63-1.61-1a17.65,17.65,0,0,1-2.48-2c-.46-.45-.91-.91-1.33-1.4a20.45,20.45,0,0,1-1.65-2.18A.59.59,0,0,0,2.23,25v.26c0,.24.08.47.1.71a8.83,8.83,0,0,0,.31,1.53,14.82,14.82,0,0,0,.7,2.07,16.87,16.87,0,0,0,1.39,2.58A18.27,18.27,0,0,0,6.15,34a15.65,15.65,0,0,0,1.94,1.88c.45.37.91.71,1.39,1A16.28,16.28,0,0,0,13,38.76c.55.21,1.11.39,1.67.55a17.38,17.38,0,0,0,1.87.42c.38.07.77.11,1.16.17a6.73,6.73,0,0,0,1.27.1c.65,0,1.3,0,2,0,.38,0,.78-.06,1.16-.11s.8-.11,1.19-.19,1-.21,1.53-.34.9-.26,1.34-.42.94-.33,1.39-.53a16.46,16.46,0,0,0,2.28-1.19,17,17,0,0,0,1.8-1.25,19,19,0,0,0,1.83-1.66,16.55,16.55,0,0,0,2-2.5c.27-.4.51-.83.75-1.25A12.93,12.93,0,0,0,37,28.59c.14-.38.25-.78.38-1.17A5.66,5.66,0,0,0,37.7,26l-.17.18C37.13,26.59,36.75,27,36.33,27.43Z"/>
  </g>
</svg>
