<svg xmlns="http://www.w3.org/2000/svg" viewBox="0 0 40 40">
  <defs>
    <style>.cls-916968{fill:#916968;}</style>
  </defs>
  <g id="Type">
    <path class="cls-916968"
          d="M33.85,0a6.16,6.16,0,0,0-4.79,2.27A27,27,0,0,0,19.46.7,28.43,28.43,0,0,0,10.68,2,6.15,6.15,0,0,0,6.15,0,6.1,6.1,0,0,0,0,6.05,6.15,6.15,0,0,0,10.8,10a27.22,27.22,0,0,0,7.44,1.21l0,3.9a1.67,1.67,0,0,0,.86,1.43l1.71.93-7.31,1.42a1.64,1.64,0,0,0-.16,3.2L18,23.44l-2.75,1a1.64,1.64,0,0,0,.05,3.11l2.86,1-2.25,1a1.64,1.64,0,0,0-1,1.52,1.66,1.66,0,0,0,1,1.49l2.94,1.24-.95.88a1.68,1.68,0,0,0-.52,1.21L19.13,40l1.6-3.43L23,34.45a1.64,1.64,0,0,0-.5-2.71L20.67,31l2.65-1.21a1.64,1.64,0,0,0-.17-3.06l-2.36-.78,3-1.1a1.65,1.65,0,0,0,1.09-1.59,1.68,1.68,0,0,0-1.19-1.53l-2.92-.86,5.21-1a1.66,1.66,0,0,0,1.33-1.36,1.62,1.62,0,0,0-.84-1.69l-4.84-2.65,0-3A25.05,25.05,0,0,0,29,9.7a6.17,6.17,0,0,0,4.89,2.4,6.1,6.1,0,0,0,6.14-6A6.1,6.1,0,0,0,33.85,0Z"/>
  </g>
</svg>
