<svg xmlns="http://www.w3.org/2000/svg" viewBox="0 0 40 40">
  <defs>
    <style>.cls-916968{fill:#916968;}</style>
  </defs>
  <g id="Type">
    <path class="cls-916968"
          d="M33.21,27.48c-4.86-1.63-9.15-1.53-9.15-7.68,0-2.37.64-8.55,3.13-12a.76.76,0,0,0-.17-1C24.69,4.44,19.56,0,14.76,0a7.84,7.84,0,0,0-1.37.12c-.19,0-.85.07-.58.88a90.29,90.29,0,0,1,3.13,18.79c0,6.14-4.29,6-9.15,7.67C2.41,29,0,30.73,0,33.05,0,35.83,3.39,38.56,9.31,40l.15,0H30.54l.15,0C36.61,38.56,40,35.83,40,33.05,40,30.73,37.59,29,33.21,27.48ZM30.38,38H9.62C4.36,36.7,2,34.43,2,33.05c0-1,1.42-2.33,5.42-3.67.81-.27,1.61-.49,2.38-.71,3.82-1.07,8.14-2.28,8.14-8.86C17.94,16,16.51,7,15.19,2,19,2.29,23.08,5.8,25,7.59c-2.28,3.85-2.91,9.55-2.91,12.21,0,6.59,4.32,7.8,8.14,8.87.77.22,1.57.44,2.38.71C36.57,30.72,38,32,38,33.05,38,34.43,35.64,36.7,30.38,38Z"/>
    <path class="cls-916968"
          d="M3,33a.18.18,0,0,0,0,0c0,.58,1.66,2.67,6.74,4H30.26c5.14-1.29,6.74-3.34,6.74-4a.18.18,0,0,0,0,0Z"/>
  </g>
</svg>
