<svg xmlns="http://www.w3.org/2000/svg" viewBox="0 0 40 40">
  <defs>
    <style>.cls-916968{fill:#916968;}</style>
  </defs>
  <g id="Type">
    <path class="cls-916968"
          d="M37.63,22C39.14,21.12,40,20.14,40,19.1c0-1.9-2.87-3.59-7.35-4.71a28.73,28.73,0,0,0-.41,4.35,5.52,5.52,0,0,0,.08.92A15.71,15.71,0,0,1,37.63,22Z"/>
    <path class="cls-916968"
          d="M29.13,35.52c-.57.13-1.41.3-2.07.4.49-5.76,2.42-8.8,2.42-8.8a62,62,0,0,1-7.83.77L21,36.38H19.18l-.68-8.49a60.44,60.44,0,0,1-7.83-.78s2,3,2.45,8.81c-.66-.1-1.29-.21-1.86-.34C9.7,29.2,7,26.34,7,26.34A17.17,17.17,0,0,1,.18,23h0a50.08,50.08,0,0,1,5,12.48C6.93,39.1,15.43,40,20.09,40c6.27,0,13.26-1.28,14.79-4.38,0,0,1.85-7.88,5-12.48v0a17.22,17.22,0,0,1-6.77,3.24S30.61,29,29.13,35.52Z"/>
    <path class="cls-916968"
          d="M2.54,22a17.22,17.22,0,0,1,6.07-2.5q-.06-.31-.12-.57a18.24,18.24,0,0,1-.89-4.52C3.08,15.49.18,17.19.18,19.1.18,20.14,1,21.12,2.54,22Z"/>
    <path class="cls-916968"
          d="M12.3,18.9c.31,1.22.6,4-.33,4.61-.38.28-1.62.2-.52,1a2.1,2.1,0,0,0,1.51,0l.35-.08a4,4,0,0,0,.71-.23,3.93,3.93,0,0,0,2-3.07c.12-1.59.84-2.91,1.94-5.3.65-1.43.9-2.61-.18-3.44s-1.9-.18-2-1.51A76.27,76.27,0,0,0,14.17,0H6.47c2.31,4.7,4.69,10.14,5.21,12.46C12,13.72,11.91,17.37,12.3,18.9Z"/>
    <path class="cls-916968"
          d="M16.67,24.69a1.13,1.13,0,0,0,.45.39,9.62,9.62,0,0,0,3,.59A9.4,9.4,0,0,0,23,25.15l.16-.07a19.61,19.61,0,0,1,3.48-1.2c1.4-.29,2.39-.66,2.25-2.3a7.21,7.21,0,0,0-.19-1.13,9.22,9.22,0,0,1-.3-2.06C28.46,14,30,9.67,30.12,5.28A18.76,18.76,0,0,0,29.28,0H22.65c.79,1.77.74,4.68,1,6.58l.78,7.06s0,.1,0,.15v0a11.92,11.92,0,0,1,.09,3.94c-.4,1.34-1.86,2.2-2.8,3.13a21,21,0,0,1-2.27,2.26h0a4.09,4.09,0,0,1-1.57.68C17.39,24,16.45,24.23,16.67,24.69Z"/>
  </g>
</svg>
