<svg xmlns="http://www.w3.org/2000/svg" viewBox="0 0 110 32.08"><path d="M109.61,12.11a9.84,9.84,0,0,1-1.72,3.38,14.55,14.55,0,0,1-2.83,2.93,2.75,2.75,0,0,0-1,1.7,6.14,6.14,0,0,0-.15,1.13c0,1.83,0,3.65,0,5.48,0,.36,0,.72,0,1.08a1.38,1.38,0,0,0,.36.88A3.76,3.76,0,0,0,106.75,30l1.24.27a3.22,3.22,0,0,1,.44.14c.19.08.42.16.42.4s-.21.35-.4.42a10.25,10.25,0,0,1-1.4.43,17.46,17.46,0,0,1-7.51-.16,4.47,4.47,0,0,1-.93-.39c-.3-.18-.29-.45,0-.6a5.34,5.34,0,0,1,1-.3c.72-.2,1.46-.36,2.17-.59a2.86,2.86,0,0,0,1.41-1.25.68.68,0,0,0,.09-.37c0-1,0-2,.06-3s0-2.3,0-3.46a5.89,5.89,0,0,0-.3-1.86,3.05,3.05,0,0,0-1-1.36,13.71,13.71,0,0,1-4.16-5.43A6.08,6.08,0,0,1,97.51,10c.13-1.36.25-2.73.47-4.08s.6-2.83.89-4.24A1.28,1.28,0,0,1,100.1.56,31.27,31.27,0,0,1,104,.37a16.36,16.36,0,0,1,3.13.18,1.46,1.46,0,0,1,1.33,1.18,46.48,46.48,0,0,1,1.24,7,9.93,9.93,0,0,1,.09,1.33A15.35,15.35,0,0,1,109.61,12.11Z"/><path d="M31.42,31.38c.48.1-.79-.18-1.1-.47-.11-.1-.23-.29-.2-.41s.21-.21.35-.27c.75-.28,1.52-.52,2.25-.83a2.25,2.25,0,0,0,1.41-2.22c0-1.8,0-3.61,0-5.41a2.13,2.13,0,0,0-1-1.88A9,9,0,0,1,29.4,14a11.79,11.79,0,0,1,0-3.25,34.82,34.82,0,0,1,1.16-5.71A1.42,1.42,0,0,1,32,3.87c.53,0,1.05-.06,1.58-.07,1,0,2,0,2.93,0A8.62,8.62,0,0,1,37.91,4a.89.89,0,0,1,.7.66,29.44,29.44,0,0,1,1.1,4.61A20.6,20.6,0,0,1,40,12.78a8.36,8.36,0,0,1-1.94,5.27A9,9,0,0,1,36,20a1.76,1.76,0,0,0-.82,1.59c0,1.84,0,3.69,0,5.53a2.28,2.28,0,0,0,1.42,2.29c.7.29,1.42.53,2.13.79l.19.05c.34.11.42.38.14.61a3.31,3.31,0,0,1-.83.44,12.91,12.91,0,0,1-3.47.43A17.85,17.85,0,0,1,31.42,31.38Z"/><path d="M.07,31.08c.59-.16,1.18-.32,1.77-.46.27-.06.54-.1.81-.14A.7.7,0,0,0,3.26,30a2.35,2.35,0,0,0,.1-.58c0-1.49,0-3,0-4.48A1.15,1.15,0,0,0,3,24.05c-.38-.38-.77-.73-1.13-1.11A6,6,0,0,1,.3,18a36.86,36.86,0,0,1,.83-4.9c.11-.49.17-.58.67-.59,1.26,0,2.52,0,3.79,0,.52,0,.58.08.68.61.28,1.6.62,3.19.82,4.8A6,6,0,0,1,5,23.47c-.23.21-.46.42-.67.64A1.17,1.17,0,0,0,4,25c0,1.41,0,2.82,0,4.23a2,2,0,0,0,0,.42c.13.62.25.74.87.86s1.29.24,1.93.38c.17,0,.42.16.44.27s-.24.33-.43.37a10.3,10.3,0,0,1-1.64.31,16.84,16.84,0,0,1-3.95-.11,2.34,2.34,0,0,1-1.21-.46Z"/><path d="M85.3,31.77c-1.13-.08-2.6-.17-4.06-.31a3.59,3.59,0,0,1-1-.34c-.31-.15-.31-.4,0-.52a8,8,0,0,1,1.29-.37,10.16,10.16,0,0,0,2.27-.66,2.37,2.37,0,0,0,1.11-1,1.79,1.79,0,0,0,.24-.91c-.05-2.5-.09-5-.14-7.51a1.57,1.57,0,0,0-.71-1.28,6.47,6.47,0,0,0-.85-.49,12.71,12.71,0,0,1-3.58-2.76,5.29,5.29,0,0,1-1.3-4.56A35.74,35.74,0,0,1,80.8,3.31a.77.77,0,0,1,.58-.52,11.9,11.9,0,0,1,1.45-.26,35.39,35.39,0,0,1,6.09.05H89c1.23.19,1.26.21,1.7,1.37a34.5,34.5,0,0,1,1.88,6.37c.09.55.14,1.11.19,1.67a4.68,4.68,0,0,1-1.12,3.32,11.78,11.78,0,0,1-4,3.16,4.24,4.24,0,0,0-.65.38,1.75,1.75,0,0,0-.73,1.47c0,2.39-.07,4.79-.13,7.18a2.06,2.06,0,0,0,1.21,2,6.79,6.79,0,0,0,2,.65c.48.1,1,.21,1.44.34.19.05.45.12.45.37s-.25.34-.44.39a13.75,13.75,0,0,1-1.77.33C87.93,31.68,86.79,31.7,85.3,31.77Z"/><path d="M52.06,24.22c0-1.25,0-2.51,0-3.76a1.55,1.55,0,0,0-.65-1.36,13.35,13.35,0,0,1-3.07-3.46,5.9,5.9,0,0,1-1.06-2.42,10.73,10.73,0,0,1,0-1.88A42.77,42.77,0,0,1,48,5.6c.05-.25.12-.49.18-.73a.47.47,0,0,1,.4-.39c.43-.06.87-.15,1.3-.18.6,0,1.21,0,1.81-.08a21.71,21.71,0,0,1,3.42.07c.29,0,.58.09.88.14a.51.51,0,0,1,.46.44c.16.83.37,1.65.48,2.49.19,1.54.33,3.08.48,4.62a4.9,4.9,0,0,1-.75,3,14,14,0,0,1-3.39,4,1.63,1.63,0,0,0-.69,1.41c0,2.51,0,5,0,7.52a1.63,1.63,0,0,0,1,1.59,17.81,17.81,0,0,0,1.71.67c.36.13.74.23,1.1.36s.39.36.13.59a1.84,1.84,0,0,1-.69.42,14,14,0,0,1-1.81.33,13.82,13.82,0,0,1-1.58.06c-.75,0-1.49,0-2.23-.06a8.53,8.53,0,0,1-1.48-.33,1.49,1.49,0,0,1-.57-.36c-.27-.25-.21-.5.14-.62.53-.18,1.07-.33,1.59-.52a7.82,7.82,0,0,0,1.19-.49,1.71,1.71,0,0,0,1-1.62C52.05,26.73,52.06,25.47,52.06,24.22Z"/><path d="M71.51,16.78a4.54,4.54,0,0,1-1.58,3.13,3.13,3.13,0,0,0-1.12,2.46c0,1.59,0,3.19-.09,4.78a2.33,2.33,0,0,0,1,2,5.54,5.54,0,0,0,1.83,1l1,.34a1.41,1.41,0,0,1,.32.17c.17.13.17.26,0,.36a2,2,0,0,1-.57.24,14.7,14.7,0,0,1-4.89.6,16.55,16.55,0,0,1-3.48-.65,2.07,2.07,0,0,1-.34-.15c-.26-.14-.26-.28,0-.45a1.13,1.13,0,0,1,.27-.13L65,30.09a4.8,4.8,0,0,0,2.19-1.46,1.47,1.47,0,0,0,.4-1l0-3.92c0-.56,0-1.12-.06-1.68a2.65,2.65,0,0,0-.93-1.93,5.25,5.25,0,0,1-1.8-3.79c-.14-2.41-.09-4.81,0-7.21.08-1.92.22-3.84.34-5.76,0-.69.12-.79.83-.81,1.49,0,3,0,4.48,0h.06c.76.11.72.14.76.74.12,1.85.24,3.71.34,5.56.06,1,.11,2.16.11,3.06S71.61,15.15,71.51,16.78Z"/><path d="M18.24,14.6c.66,0,1.32,0,2,0a.37.37,0,0,1,.44.36c0,.32.07.64.09,1,.11,1.82.23,3.64.31,5.46a5.37,5.37,0,0,1-.34,2.17A2.22,2.22,0,0,1,19.21,25c-.21.06-.28.15-.27.36q0,2,0,4a1,1,0,0,0,.62,1c.41.19.83.33,1.24.52.15.07.39.14.39.3s-.25.28-.4.35a5.18,5.18,0,0,1-1.91.31,10.68,10.68,0,0,1-2.59-.14,4.2,4.2,0,0,1-.78-.26.39.39,0,0,1-.21-.26c0-.08.13-.19.23-.24l.94-.37a5,5,0,0,0,.57-.27.94.94,0,0,0,.5-.87c0-1.36,0-2.72,0-4.09,0-.13,0-.25-.18-.3a2.47,2.47,0,0,1-1.8-2.13A11.2,11.2,0,0,1,15.44,20c.09-1.42.21-2.84.31-4.27,0-.26,0-.52.08-.78a.36.36,0,0,1,.43-.34C16.92,14.61,17.58,14.6,18.24,14.6Z"/></svg>