<svg xmlns="http://www.w3.org/2000/svg" viewBox="0 0 40 40">
  <defs>
    <style>.cls-a2312devenodd{fill:#a2312d;fill-rule:evenodd;}.cls-916968{fill:#916968;}</style>
  </defs>
  <g id="Type">
    <path class="cls-a2312devenodd" d="M26,12A14,14,0,1,1,12,26,14,14,0,0,1,26,12Z"/>
    <path class="cls-916968" d="M13.06,35.33C11.28,36.12,8,37.38,8,37.38V40H18.2A16.07,16.07,0,0,1,13.06,35.33Z"/>
    <path class="cls-916968"
          d="M10.21,20.45c.25.2.51.37.76.54a15.83,15.83,0,0,1,1.32-2.9,1.77,1.77,0,0,1-.17-.12c-1.63-1.31-1.76-2.07-1.78-3.17A93.8,93.8,0,0,1,11.89,3.57a24.6,24.6,0,0,1,4.32-.42,24.68,24.68,0,0,1,4.31.42c.28,1.32.56,3,.81,4.72H13.79c-.32,1.39-1,5.76-.62,8a3,3,0,0,0,.09.32,16,16,0,0,1,11.46-6.44c-.38-2.9-.94-6.34-1.42-8.33L23.08.92,22.17.7a27.9,27.9,0,0,0-6-.7,27.67,27.67,0,0,0-6,.7L9.34.92l-.23.93a93.78,93.78,0,0,0-1.86,13C7.3,16.88,7.81,18.51,10.21,20.45Z"/>
  </g>
</svg>
