<svg xmlns="http://www.w3.org/2000/svg" viewBox="0 0 40 40">
  <defs>
    <style>.cls-916968{fill:#916968;}</style>
  </defs>
  <g id="Type">
    <path class="cls-916968"
          d="M27.76,10.87c-.16.12-.32.24-.49.35,1.83.21,4.15.81,5.26,2.51a14,14,0,0,0-7-.89,7.52,7.52,0,0,1,2,8.6,14.91,14.91,0,0,0,2.49,1.32l1.08.39a11.48,11.48,0,0,0,1.57-4.32A7.06,7.06,0,0,0,40,17.2a7.06,7.06,0,0,0-4.57-5.94A11.37,11.37,0,0,0,37,6.94l-1.08-.4a18.16,18.16,0,0,0-4.49-.77,14.28,14.28,0,0,1-2.4,3.88Z"/>
    <path class="cls-916968"
          d="M27.21,9l1.15-1.34A15.87,15.87,0,0,0,30.89,1a.88.88,0,1,0-1.74-.2,14.05,14.05,0,0,1-.45,2.05c-.54,1.87-1.69,4.51-4,5.91-.13.08-.28.14-.42.21a6.56,6.56,0,0,1,.37,1.77A8.29,8.29,0,0,0,27.21,9Z"/>
    <path class="cls-916968"
          d="M32.9,25.68C30.75,28,28.27,30.46,25.62,31c-4.54.94-6.8.94-8.13.22-2.33-1.25-.39-.86,6.14-1.84s4.92-4.33,4.92-4.33c-1.47-.05-3.06.2-9.91.69a63.51,63.51,0,0,0-10,1.41c-1.62.48-4.76,1.79-5.75,5.18C2.38,34.17,0,40,0,40H10.05a3.3,3.3,0,0,1,2.84-2.41c2.73-.26,13.31-1.08,16-2.17C34.75,30.6,40,23.06,40,23.06S37.28,19.37,32.9,25.68Z"/>
    <path class="cls-916968" d="M13.49,9.81a5,5,0,1,0,6-3.64A5,5,0,0,0,13.49,9.81Z"/>
    <path class="cls-916968" d="M11.84,10a3.83,3.83,0,0,0,.59.1,4.8,4.8,0,0,1,.09-.5A6,6,0,0,1,18,5,5,5,0,1,0,11.84,10Z"/>
    <path class="cls-916968" d="M16.89,16.78l-.42-.13c-.08.21-.15.42-.21.64a5,5,0,1,0,7.14-3.2A6,6,0,0,1,16.89,16.78Z"/>
    <path class="cls-916968"
          d="M7.8,16.79a5,5,0,0,0,5.56-2.5,5.91,5.91,0,0,1-1-3.34,6.51,6.51,0,0,1-1-.15A6,6,0,0,1,7.31,7.29a5,5,0,0,0,.49,9.5Z"/>
    <path class="cls-916968"
          d="M15.57,16.27a6.22,6.22,0,0,1-1.35-1A6,6,0,0,1,8,17.93a1.21,1.21,0,0,1,0,.18,5,5,0,0,0,8.62,4.37,6,6,0,0,1-1.31-5.35A4.83,4.83,0,0,1,15.57,16.27Z"/>
    <path class="cls-916968"
          d="M3.78,23.9a5,5,0,0,0,4.07-.79,5.93,5.93,0,0,1-.93-4.87,3.43,3.43,0,0,1,.17-.57,5.93,5.93,0,0,1-3.42-3.38,5,5,0,0,0,.11,9.61Z"/>
  </g>
</svg>
