<?xml version="1.0" encoding="UTF-8"?>
<svg width="34px" height="49px" viewBox="0 0 34 49" version="1.1" xmlns="http://www.w3.org/2000/svg">
    <!-- Generator: Sketch 64 (93537) - https://sketch.com -->
    <title>icn-wines</title>
    <desc>Created with Sketch.</desc>
    <g id="UI-Kit" stroke="none" stroke-width="1" fill="none" fill-rule="evenodd" stroke-linecap="round" stroke-linejoin="round">
        <g transform="translate(-751.000000, -784.000000)" id="icn-wines" stroke="#000000">
            <g transform="translate(751.000000, 784.000000)">
                <g id="Group">
                    <path d="M3.6,1.6 L3.6,10.1 C1.9,10.5 0.5,12.1 0.5,14.1 L0.5,40.9 C0.5,42.3 3,43.5 6,43.5 C9,43.5 11.5,42.3 11.5,40.9 L11.5,14.1 C11.5,12.1 10.2,10.5 8.4,10.1 L8.4,1.6" id="Path"></path>
                    <ellipse id="Oval" cx="6" cy="1.6" rx="2.4" ry="1.1"></ellipse>
                    <path d="M8.4,4.2 C8.4,4.8 7.3,5.3 6,5.3 C4.7,5.3 3.6,4.9 3.6,4.2" id="Path"></path>
                    <path d="M10.5,30.7 C9.5,31.3 7.9,31.7 6.1,31.7 C4.7,31.7 3.5,31.5 2.5,31.1 L2.5,24.7 C3.5,25.1 4.7,25.3 6.1,25.3 C7.9,25.3 9.5,24.9 10.5,24.3" id="Path"></path>
                    <path d="M2.3,14.9 C1.2,15.4 0.5,16.1 0.5,16.8 C0.5,18.2 3,19.4 6,19.4 C9,19.4 11.5,18.2 11.5,16.8 C11.5,15.4 9,14.2 6,14.2 C5.3,14.2 4.7,14.3 4.1,14.4" id="Path"></path>
                </g>
                <g id="Group" transform="translate(11.000000, 5.000000)">
                    <path d="M3.6,1.6 L3.6,10.1 C1.9,10.5 0.5,12.1 0.5,14.1 L0.5,40.9 C0.5,42.3 3,43.5 6,43.5 C9,43.5 11.5,42.3 11.5,40.9 L11.5,14.1 C11.5,12.1 10.2,10.5 8.4,10.1 L8.4,1.6" id="Path"></path>
                    <ellipse id="Oval" cx="6" cy="1.6" rx="2.4" ry="1.1"></ellipse>
                    <path d="M8.4,4.2 C8.4,4.8 7.3,5.3 6,5.3 C4.7,5.3 3.6,4.8 3.6,4.2" id="Path"></path>
                    <path d="M10.5,30.7 C9.5,31.3 7.9,31.7 6.1,31.7 C4.7,31.7 3.5,31.5 2.5,31.1 L2.5,24.7 C3.5,25.1 4.7,25.3 6.1,25.3 C7.9,25.3 9.5,24.9 10.5,24.3" id="Path"></path>
                    <path d="M2.3,14.9 C1.2,15.4 0.5,16.1 0.5,16.8 C0.5,18.2 3,19.4 6,19.4 C9,19.4 11.5,18.2 11.5,16.8 C11.5,15.4 9,14.2 6,14.2 C5.3,14.2 4.7,14.3 4.1,14.4" id="Path"></path>
                </g>
                <g id="Group" transform="translate(22.000000, 0.000000)">
                    <path d="M3.6,1.6 L3.6,10.1 C1.9,10.5 0.5,12.1 0.5,14.1 L0.5,40.9 C0.5,42.3 3,43.5 6,43.5 C9,43.5 11.5,42.3 11.5,40.9 L11.5,14.1 C11.5,12.1 10.2,10.5 8.4,10.1 L8.4,1.6" id="Path"></path>
                    <ellipse id="Oval" cx="6" cy="1.6" rx="2.4" ry="1.1"></ellipse>
                    <path d="M8.4,4.2 C8.4,4.8 7.3,5.3 6,5.3 C4.6,5.3 3.6,4.8 3.6,4.2" id="Path"></path>
                    <path d="M10.5,30.7 C9.5,31.3 7.9,31.7 6.1,31.7 C4.7,31.7 3.5,31.5 2.5,31.1 L2.5,24.7 C3.5,25.1 4.7,25.3 6.1,25.3 C7.9,25.3 9.5,24.9 10.5,24.3" id="Path"></path>
                    <path d="M2.3,14.9 C1.2,15.4 0.5,16.1 0.5,16.8 C0.5,18.2 3,19.4 6,19.4 C9,19.4 11.5,18.2 11.5,16.8 C11.5,15.4 9,14.2 6,14.2 C5.3,14.2 4.7,14.3 4.1,14.4" id="Path"></path>
                </g>
            </g>
        </g>
    </g>
</svg>
