<?xml version="1.0" encoding="UTF-8"?>
<svg width="16px" height="10px" viewBox="0 0 16 10" version="1.1" xmlns="http://www.w3.org/2000/svg">
    <!-- Generator: Sketch 64 (93537) - https://sketch.com -->
    <title>icn-memu</title>
    <desc>Created with Sketch.</desc>
    <g id="UI-Kit" stroke="none" stroke-width="1" fill="none" fill-rule="evenodd">
        <g transform="translate(-1088.000000, -941.000000)" fill="#000000" fill-rule="nonzero" id="icn-memu" class="changeFillHere">
            <g transform="translate(1088.000000, 941.000000)">
                <path d="M15,2 L1,2 C0.4,2 0,1.6 0,1 L0,1 C0,0.4 0.4,0 1,0 L15,0 C15.6,0 16,0.4 16,1 L16,1 C16,1.6 15.6,2 15,2 Z" id="Path"></path>
                <path d="M15,6 L1,6 C0.4,6 0,5.6 0,5 L0,5 C0,4.4 0.4,4 1,4 L15,4 C15.6,4 16,4.4 16,5 L16,5 C16,5.6 15.6,6 15,6 Z" id="Path"></path>
                <path d="M15,10 L1,10 C0.4,10 0,9.6 0,9 L0,9 C0,8.4 0.4,8 1,8 L15,8 C15.6,8 16,8.4 16,9 L16,9 C16,9.6 15.6,10 15,10 Z" id="Path"></path>
            </g>
        </g>
    </g>
</svg>
