<?xml version="1.0" encoding="UTF-8"?>
<svg width="16px" height="16px" viewBox="0 0 16 16" version="1.1" xmlns="http://www.w3.org/2000/svg">
    <!-- Generator: Sketch 64 (93537) - https://sketch.com -->
    <title>icn-serarch</title>
    <desc>Created with Sketch.</desc>
    <g id="UI-Kit" stroke="none" stroke-width="1" fill="none" fill-rule="evenodd">
        <g transform="translate(-1088.000000, -1088.000000)" id="icn-serarch">
            <g transform="translate(1088.000000, 1088.000000)">
                <path d="M6.8,2 C9.4,2 11.6,4.1 11.6,6.8 C11.6,9.5 9.5,11.6 6.8,11.6 C4.1,11.6 2,9.4 2,6.8 C2,4.2 4.1,2 6.8,2 M6.8,0 C3,0 0,3 0,6.8 C0,10.6 3,13.6 6.8,13.6 C10.6,13.6 13.6,10.6 13.6,6.8 C13.6,3 10.5,0 6.8,0 L6.8,0 Z" id="Shape" fill="#000000" class="changeFillHere" fill-rule="nonzero"></path>
                <path d="M3.7,6.6 C3.7,5 5,3.7 6.6,3.7" id="Path" stroke="#000000" stroke-width="1" stroke-linecap="round" class="changeStrokeHere"></path>
                <line x1="15" y1="15" x2="12" y2="12" id="Path" stroke="#000000" stroke-width="2" stroke-linecap="round" stroke-linejoin="round" class="changeStrokeHere"></line>
            </g>
        </g>
    </g>
</svg>
