<?xml version="1.0" encoding="UTF-8"?>
<svg width="16px" height="16px" viewBox="0 0 16 16" version="1.1" xmlns="http://www.w3.org/2000/svg">
    <!-- Generator: Sketch 64 (93537) - https://sketch.com -->
    <title>icn-add</title>
    <desc>Created with Sketch.</desc>
    <g id="UI-Kit" stroke="none" stroke-width="1" fill="none" fill-rule="evenodd">
        <g transform="translate(-1088.000000, -800.000000)" fill="#b9b9b9" fill-rule="nonzero" id="icn-add" class="changeFillHere">
            <g transform="translate(1088.000000, 800.000000)">
                <path d="M15,9 L1,9 C0.4,9 0,8.6 0,8 L0,8 C0,7.4 0.4,7 1,7 L15,7 C15.6,7 16,7.4 16,8 L16,8 C16,8.6 15.6,9 15,9 Z" id="Path"></path>
                <path d="M7,15 L7,1 C7,0.4 7.4,0 8,0 L8,0 C8.6,0 9,0.4 9,1 L9,15 C9,15.6 8.6,16 8,16 L8,16 C7.4,16 7,15.6 7,15 Z" id="Path"></path>
            </g>
        </g>
    </g>
</svg>
