<?xml version="1.0" encoding="UTF-8"?>
<svg width="39px" height="44px" viewBox="0 0 39 44" version="1.1" xmlns="http://www.w3.org/2000/svg">
    <!-- Generator: Sketch 64 (93537) - https://sketch.com -->
    <title>icn-thumbUp</title>
    <desc>Created with Sketch.</desc>
    <g id="Desktop" stroke="none" stroke-width="1" fill="none" fill-rule="evenodd">
        <g id="Home" transform="translate(-352.000000, -542.000000)" fill="#FFFFFF" fill-rule="nonzero">
            <g id="Group-2" transform="translate(352.000000, 542.000000)">
                <g id="icn-thumbUp">
                    <path d="M24.9522178,44 C19.47527,44 9.58633646,42.1730104 7,40.4982699 L7,19.9446367 C7.30427488,19.6401384 10.803436,17.0519031 14.3025971,15.0726644 C19.3231326,12.3321799 23.4308434,8.22145329 24.4958055,5.32871972 C24.6479429,4.87197232 24.8000804,4.56747405 24.8000804,4.26297578 C25.8650424,1.21799308 26.4735922,0 28.4513789,0 C29.9727533,0 30.7334405,1.06574394 31.0377154,1.82698962 C32.1026774,4.11072664 31.6462651,8.98269896 28.147104,14.0069204 L26.3214548,16.5951557 L29.3642035,17.3564014 C32.1026774,17.9653979 34.0804642,18.5743945 35.2975637,18.8788927 C37.2753504,19.4878893 38.6445873,21.0103806 38.9488622,22.6851211 C39.2531371,24.5121107 38.188175,26.4913495 36.0582509,28.0138408 L35.6018385,28.3183391 L35.4497011,28.9273356 C30.8855779,41.716263 28.6035163,43.2387543 28.4513789,43.3910035 C27.6906917,43.8477509 26.1693173,44 24.9522178,44 Z" id="Path"></path>
                    <path d="M2,42 L2,42 C3.14285714,42 4,41.1017964 4,39.9041916 L4,19.0958084 C4,17.8982036 3.14285714,17 2,17 L2,17 C0.857142857,17 0,17.8982036 0,19.0958084 L0,39.9041916 C0,41.1017964 0.857142857,42 2,42 Z" id="Path"></path>
                </g>
            </g>
        </g>
    </g>
</svg>
