<?xml version="1.0" encoding="UTF-8"?>
<svg width="55px" height="40px" viewBox="0 0 55 40" version="1.1" xmlns="http://www.w3.org/2000/svg">
    <!-- Generator: Sketch 64 (93537) - https://sketch.com -->
    <title>icn-groups</title>
    <desc>Created with Sketch.</desc>
    <g id="UI-Kit" stroke="none" stroke-width="1" fill="none" fill-rule="evenodd">
        <g transform="translate(-842.000000, -789.000000)" id="icn-groups">
            <g transform="translate(843.000000, 788.000000)">
                <g id="Group">
                    <g transform="translate(0.000000, 4.000000)">
                        <ellipse id="Oval" stroke="#000000" stroke-width="0.999952449" transform="translate(18.938770, 4.705290) rotate(-68.301799) translate(-18.938770, -4.705290) " cx="18.93877" cy="4.70529" rx="1.89990965" ry="7.39964812"></ellipse>
                        <path d="M12,2 L7.2,9.5 C4.1,14.3 6.2,20.7 11.6,22.9 L11.6,22.9 C17,25.1 23.1,21.8 24.2,16.1 L25.8,7.5" id="Path" stroke="#000000"></path>
                        <path d="M6.6,29.4 C3.6,28.6 1,28.7 0.5,29.9 C-0.1,31.4 2.5,33.8 6.4,35.3 C10.2,36.8 13.8,36.9 14.4,35.4 C14.9,34.1 13,32.1 10,30.6" id="Path" stroke="#000000" stroke-linecap="round" stroke-linejoin="round"></path>
                        <path d="M7.3,32.6 L7.3,32.6 C6.8,32.4 6.6,32 6.7,31.6 L10.9,22.6 L11.7,22.9 L8.4,32.3 C8.3,32.7 7.8,32.8 7.3,32.6 Z" id="Path" fill="#000000" fill-rule="nonzero"></path>
                        <path d="M6.1,14.1 C7.5,13.2 8.7,12.1 11.2,12.1 C15.7,12.1 16,15.5 20.5,15.5 C22.2,15.5 23.3,15 24.3,14.4" id="Path" stroke="#000000" stroke-linecap="round" stroke-linejoin="round"></path>
                    </g>
                    <g transform="translate(26.000000, 0.000000)">
                        <ellipse id="Oval" stroke="#000000" stroke-width="0.999952449" transform="translate(7.982990, 4.713770) rotate(-21.698201) translate(-7.982990, -4.713770) " cx="7.98299" cy="4.71377" rx="7.39964812" ry="1.89990965"></ellipse>
                        <path d="M15,2 L19.8,9.5 C22.9,14.3 20.8,20.7 15.4,22.9 L15.4,22.9 C10,25 3.9,21.7 2.9,16.1 L1.3,7.5" id="Path" stroke="#000000"></path>
                        <path d="M20.4,29.4 C23.4,28.6 26,28.7 26.5,29.9 C27.1,31.4 24.5,33.8 20.6,35.3 C16.8,36.8 13.2,36.9 12.6,35.4 C12.1,34.1 14,32.1 17,30.6" id="Path" stroke="#000000" stroke-linecap="round" stroke-linejoin="round"></path>
                        <path d="M19.7,32.6 L19.7,32.6 C20.2,32.4 20.4,32 20.3,31.6 L16.1,22.6 L15.2,23 L18.5,32.4 C18.7,32.7 19.2,32.8 19.7,32.6 Z" id="Path" fill="#000000" fill-rule="nonzero"></path>
                        <path d="M20.9,14.1 C19.5,13.2 18.3,12.1 15.8,12.1 C11.3,12.1 11,15.5 6.5,15.5 C4.8,15.5 3.7,15 2.7,14.4" id="Path" stroke="#000000" stroke-linecap="round" stroke-linejoin="round"></path>
                    </g>
                </g>
            </g>
        </g>
    </g>
</svg>
