<?xml version="1.0" encoding="UTF-8"?>
<svg width="16px" height="16px" viewBox="0 0 16 16" version="1.1" xmlns="http://www.w3.org/2000/svg">
    <!-- Generator: Sketch 64 (93537) - https://sketch.com -->
    <title>icn-error</title>
    <desc>Created with Sketch.</desc>
    <g id="Desktop" stroke="none" stroke-width="1" fill="none" fill-rule="evenodd">
        <g id="Content-Placement-Examples" transform="translate(-558.000000, -20.000000)" fill="#FFFFFF" fill-rule="nonzero">
            <g id="Error-message" transform="translate(550.000000, 16.000000)">
                <g id="icn-error" transform="translate(8.000000, 4.000000)">
                    <path d="M8,0 C3.6,0 0,3.6 0,8 C0,12.4 3.6,16 8,16 C12.4,16 16,12.4 16,8 C16,3.6 12.4,0 8,0 Z M8,13 C7.3,13 6.7,12.5 6.7,11.7 C6.7,11 7.2,10.4 8,10.4 C8.7,10.4 9.3,11 9.3,11.7 C9.3,12.5 8.8,13 8,13 Z M9.2,4.9 C9,6.3 8.7,7.5 8.5,9 L7.6,9 C7.3,7.6 7.1,6.3 6.8,4.9 C6.7,4.4 6.6,4.1 6.6,3.9 C6.6,3.4 7,3 8,3 C9,3 9.4,3.4 9.4,3.9 C9.4,4.1 9.3,4.4 9.2,4.9 Z" id="Shape" fill="#FF4545"></path>
                </g>
            </g>
        </g>
    </g>
</svg>
