<?xml version="1.0" encoding="UTF-8"?>
<svg width="10px" height="10px" viewBox="0 0 10 10" version="1.1" xmlns="http://www.w3.org/2000/svg">
    <!-- Generator: Sketch 64 (93537) - https://sketch.com -->
    <title>icn-error-2</title>
    <desc>Created with Sketch.</desc>
    <g id="UI-Kit" stroke="none" stroke-width="1" fill="none" fill-rule="evenodd">
        <g transform="translate(-512.000000, -402.000000)" fill="#FF4545" fill-rule="nonzero" id="icn-error-2">
            <g transform="translate(512.000000, 402.000000)">
                <path d="M5,0 C2.25,0 0,2.25 0,5 C0,7.75 2.25,10 5,10 C7.75,10 10,7.75 10,5 C10,2.25 7.75,0 5,0 Z M5,8 C4.46153846,8 4,7.61538462 4,7 C4,6.46153846 4.38461538,6 5,6 C5.53846154,6 6,6.46153846 6,7 C6,7.61538462 5.61538462,8 5,8 Z M5.85714286,2.95 C5.71428571,3.65 5.5,4.25 5.35714286,5 L4.71428571,5 C4.5,4.3 4.35714286,3.65 4.14285714,2.95 C4.07142857,2.7 4,2.55 4,2.45 C4,2.2 4.28571429,2 5,2 C5.71428571,2 6,2.2 6,2.45 C6,2.55 5.92857143,2.7 5.85714286,2.95 Z" id="Shape"></path>
            </g>
        </g>
    </g>
</svg>
