<?xml version="1.0" encoding="UTF-8"?>
<svg width="12px" height="12px" viewBox="0 0 12 12" version="1.1" xmlns="http://www.w3.org/2000/svg">
    <!-- Generator: Sketch 64 (93537) - https://sketch.com -->
    <title>icn-close</title>
    <desc>Created with Sketch.</desc>
    <g id="UI-Kit" stroke="none" stroke-width="1" fill="none" fill-rule="evenodd">
        <g transform="translate(-1090.000000, -836.000000)" fill="#000000" id="icn-close" class="changeFillHere">
            <g transform="translate(1090.000000, 836.000000)">
                <g id="Group">
                    <path d="M7.4,6 L11.7,1.7 C12.1,1.3 12.1,0.7 11.7,0.3 C11.3,-0.1 10.7,-0.1 10.3,0.3 L6,4.6 L1.7,0.3 C1.3,-0.1 0.7,-0.1 0.3,0.3 C-0.1,0.7 -0.1,1.3 0.3,1.7 L4.6,6 L0.3,10.3 C-0.1,10.7 -0.1,11.3 0.3,11.7 C0.5,11.9 0.7,12 1,12 C1.3,12 1.5,11.9 1.7,11.7 L6,7.4 L10.3,11.7 C10.5,11.9 10.8,12 11,12 C11.2,12 11.5,11.9 11.7,11.7 C12.1,11.3 12.1,10.7 11.7,10.3 L7.4,6 Z" id="Path" fill-rule="nonzero"></path>
                </g>
            </g>
        </g>
    </g>
</svg>
