<?xml version="1.0" encoding="UTF-8"?>
<svg width="39px" height="42px" viewBox="0 0 39 42" version="1.1" xmlns="http://www.w3.org/2000/svg">
    <!-- Generator: Sketch 64 (93537) - https://sketch.com -->
    <title>icn-events</title>
    <desc>Created with Sketch.</desc>
    <g id="UI-Kit" stroke="none" stroke-width="1" fill="none" fill-rule="evenodd">
        <g transform="translate(-953.000000, -787.000000)" id="icn-events">
            <g transform="translate(953.000000, 787.000000)">
                <line x1="20.5" y1="3.5" x2="13.5" y2="3.5" id="Path" stroke="#221F23" stroke-linecap="round" stroke-linejoin="round"></line>
                <path d="M33.5,3.5 L36.5,3.5 C37.6,3.5 38.5,4.4 38.5,5.5 L38.5,31.5 C38.5,32.6 37.6,33.5 36.5,33.5 L35.5,33.5" id="Path" stroke="#221F23" stroke-linecap="round" stroke-linejoin="round"></path>
                <line x1="30.5" y1="3.5" x2="23.5" y2="3.5" id="Path" stroke="#221F23" stroke-linecap="round" stroke-linejoin="round"></line>
                <path d="M5.5,14.5 L5.5,5.5 C5.5,4.4 6.4,3.5 7.5,3.5 L10.5,3.5" id="Path" stroke="#221F23" stroke-linecap="round" stroke-linejoin="round"></path>
                <path d="M10.5,5 C10.5,5.8 11.2,6.5 12,6.5 C12.8,6.5 13.5,5.8 13.5,5 L13.5,2 C13.5,1.2 12.8,0.5 12,0.5 C11.2,0.5 10.5,1.2 10.5,2 L10.5,5 Z" id="Path" stroke="#221F23" stroke-linecap="round"></path>
                <path d="M22,6.5 L22,6.5 C21.2,6.5 20.5,5.8 20.5,5 L20.5,2 C20.5,1.2 21.2,0.5 22,0.5 L22,0.5 C22.8,0.5 23.5,1.2 23.5,2 L23.5,5 C23.5,5.8 22.8,6.5 22,6.5 Z" id="Path" stroke="#221F23" stroke-linecap="round"></path>
                <path d="M32,6.5 L32,6.5 C31.2,6.5 30.5,5.8 30.5,5 L30.5,2 C30.5,1.2 31.2,0.5 32,0.5 L32,0.5 C32.8,0.5 33.5,1.2 33.5,2 L33.5,5 C33.5,5.8 32.8,6.5 32,6.5 Z" id="Path" stroke="#221F23" stroke-linecap="round"></path>
                <polyline id="Path" stroke="#221F23" stroke-linecap="round" stroke-linejoin="round" points="8.1 11.3 9.7 13.3 11.2 11.3 12.7 13.3 14.3 11.3 15.8 13.3 17.4 11.3 18.9 13.3 20.5 11.3 22 13.3 23.5 11.3 25.1 13.3 26.6 11.3 28.2 13.3 29.7 11.3 31.2 13.3 32.8 11.3 34.3 13.3 35.9 11.3"></polyline>
                <path d="M33.5,15.5 L33.5,39.5 C33.5,40.6 32.6,41.5 31.5,41.5 L2.5,41.5 C1.4,41.5 0.5,40.6 0.5,39.5 L0.5,15.5 L0.5,15.5 L2.1,17.5 L3.7,15.5 L5.3,17.5 L6.9,15.5 L8.5,17.5 L10.1,15.5 L11.8,17.5 L13.4,15.5 L15.1,17.5 L16.7,15.5 L18.4,17.5 L20,15.5 L21.6,17.5 L23.3,15.5 L24.9,17.5 L26.6,15.5 L28.3,17.5 L30,15.5 L31.7,17.5 L33.5,15.5 Z" id="Path" stroke="#221F23" stroke-linecap="round" stroke-linejoin="round"></path>
                <g id="Group" fill-rule="evenodd" transform="translate(3.000000, 37.000000)" fill="#000000">
                    <rect id="Rectangle" fill-rule="nonzero" x="27" y="0.1" width="1" height="2"></rect>
                    <rect id="Rectangle" fill-rule="nonzero" x="24" y="0.1" width="1" height="2"></rect>
                    <rect id="Rectangle" fill-rule="nonzero" x="21" y="0.1" width="1" height="2"></rect>
                    <rect id="Rectangle" fill-rule="nonzero" x="18" y="0.1" width="1" height="2"></rect>
                    <rect id="Rectangle" fill-rule="nonzero" x="15" y="0.1" width="1" height="2"></rect>
                    <rect id="Rectangle" fill-rule="nonzero" x="12" y="0.1" width="1" height="2"></rect>
                    <rect id="Rectangle" fill-rule="nonzero" x="9" y="0.1" width="1" height="2"></rect>
                    <rect id="Rectangle" fill-rule="nonzero" x="6" y="0.1" width="1" height="2"></rect>
                    <rect id="Rectangle" fill-rule="nonzero" x="3" y="0.1" width="1" height="2"></rect>
                    <rect id="Rectangle" fill-rule="nonzero" x="0" y="0.1" width="1" height="2"></rect>
                </g>
                <g id="Group" fill-rule="evenodd" transform="translate(9.000000, 22.000000)" fill="#000000">
                    <polygon id="Path" fill-rule="nonzero" points="2.7 1.9 2.7 1.9 0.8 2.9 0.5 1.8 2.9 0.5 4.2 0.5 4.2 11.4 2.8 11.4 2.8 1.9"></polygon>
                    <path d="M13.2,1.7 L9.1,1.7 L8.7,4.5 C8.9,4.5 9.2,4.4 9.6,4.4 C10.4,4.4 11.3,4.6 11.9,5 C12.8,5.5 13.5,6.4 13.5,7.8 C13.5,9.9 11.8,11.5 9.5,11.5 C8.3,11.5 7.3,11.2 6.8,10.8 L7.2,9.7 C7.7,10 8.5,10.3 9.5,10.3 C10.9,10.3 12.1,9.4 12.1,7.9 C12.1,6.5 11.1,5.5 9,5.5 C8.4,5.5 7.9,5.6 7.5,5.6 L8.2,0.4 L13.4,0.4 L13.4,1.7 L13.2,1.7 Z" id="Path" fill-rule="nonzero"></path>
                </g>
            </g>
        </g>
    </g>
</svg>
