<svg xmlns="http://www.w3.org/2000/svg" viewBox="0 0 40 40">
  <defs>
    <style>.cls-916968{fill:#916968;}</style>
  </defs>
  <g id="Type">
    <path class="cls-916968" d="M20,0A20,20,0,1,0,40,20,20,20,0,0,0,20,0Zm0,38A18,18,0,1,1,38,20,18,18,0,0,1,20,38Z"/>
    <path class="cls-916968"
          d="M24.74,19.15,30,9.84c.21-.51,0-.88-.58-.88H24.4c-1.09,0-1.51.31-1.82,1l-4.27,7c-.09.27-.49.21-.49,0V9.6a.6.6,0,0,0-.6-.64H10.7a.6.6,0,0,0-.6.64V30.39a.59.59,0,0,0,.6.61h6.52a.59.59,0,0,0,.6-.61V23.18c0-.27.37-.3.49-.06l4,7.09a1.46,1.46,0,0,0,1.27.79h7c.39,0,.63-.21.45-.61Z"/>
  </g>
</svg>
