<svg xmlns="http://www.w3.org/2000/svg" viewBox="0 0 40 40">
  <defs>
    <style>.cls-916968{fill:#916968;}</style>
  </defs>
  <g id="Type">
    <path class="cls-916968"
          d="M31.55,20l5.77-10H25.77L20,0,14.23,10H2.68L8.45,20,2.68,30H14.23L20,40l5.77-10H37.32Zm2.31-8-3.47,6-3.46-6Zm-4.62,8-4.62,8H15.38l-4.62-8,4.62-8h9.24ZM20,4l3.46,6H16.54ZM6.14,12h6.93L9.61,18Zm0,16,3.47-6,3.46,6ZM20,36l-3.46-6h6.92ZM30.39,22l3.47,6H26.93Z"/>
    <path class="cls-916968"
          d="M15.67,22.36V25h9V18.53a3.52,3.52,0,0,0-.16-1.14,2.59,2.59,0,0,0-.45-.82,2.25,2.25,0,0,0-.67-.55,4.36,4.36,0,0,0-.85-.37L17.37,14,16.3,16.36a6.84,6.84,0,0,0-.38,1,3.57,3.57,0,0,0-.14.94,3.81,3.81,0,0,0,.16,1.17,2,2,0,0,0,.52.86,2.11,2.11,0,0,0,.91.54,4.34,4.34,0,0,0,1.34.18l.41,0a2,2,0,0,0,.32,0V19l-.23,0h-.29a.9.9,0,0,1-.6-.18.79.79,0,0,1-.22-.63,1.55,1.55,0,0,1,0-.31c0-.11.05-.2.07-.3l.09-.24.08-.17.14-.31,2.87.93a1,1,0,0,1,.43.23,1,1,0,0,1,.24.35,2,2,0,0,1,.11.47c0,.18,0,.37,0,.59v2.86Z"/>
  </g>
</svg>
