<?xml version="1.0" encoding="UTF-8"?>
<svg width="223px" height="48px" viewBox="0 0 223 48" version="1.1" xmlns="http://www.w3.org/2000/svg">
    <!-- Generator: Sketch 64 (93537) - https://sketch.com -->
    <title>logo-bonvono</title>
    <desc>Created with Sketch.</desc>
    <g id="Desktop" stroke="none" stroke-width="1" fill="none" fill-rule="evenodd">
        <g id="Home" transform="translate(-64.000000, -64.000000)" fill="#111111" fill-rule="nonzero">
            <g id="logo-bonvono" transform="translate(64.000000, 64.000000)">
                <g fill="none">
                    <path d="M21.3091404,20.4578861 C24.212293,17.4200899 27.1154457,14.3822937 27.1154457,9.29507509 C27.1154457,6.19913921 24.887276,0 14.7334997,0 C11.8811522,0 9.4715355,0.188953833 7.98366977,0.188953833 C7.67158086,0.188953833 3.77409844,0 0.987071898,0 C0.304831027,0 0,0.123546737 0,0.494186948 C0,0.741280422 0.246767975,0.864827159 0.493535949,0.864827159 C1.19940824,0.863626718 1.90391977,0.926873136 2.59832161,1.05378099 C4.63778635,1.4898283 5.13858018,2.50727201 5.26196416,4.58576418 C5.38534815,6.56977942 5.38534815,8.3067012 5.38534815,17.979684 L5.38534815,28.8954015 C5.38534815,34.8474473 5.38534815,39.745712 5.07325924,42.347461 C4.82649127,44.1425224 4.51440236,45.5088039 3.28056249,45.7558974 C2.67076094,45.8987823 2.04845326,45.9815416 1.42254479,46.0029909 C1.05239283,46.0029909 0.929008846,46.1919447 0.929008846,46.3808985 C0.929008846,46.7515388 1.23383987,46.8750855 1.91608074,46.8750855 C2.84508959,46.8750855 4.26763438,46.7515388 5.54502155,46.7515388 C6.82240871,46.7515388 7.89657519,46.6861317 8.01995917,46.6861317 C8.26672715,46.6861317 10.0013609,46.7515388 11.7940576,46.8750855 C13.5867544,46.9986322 15.5754139,47.0567719 16.2576548,47.0567719 C18.9047524,47.0957732 21.5305836,46.578332 23.9655251,45.5378738 C23.2986417,45.0493071 22.5865334,44.6258591 21.8389658,44.2733366 C20.6051089,44.793534 19.2802471,45.0628085 17.9414833,45.0654892 C16.8310274,45.0654892 14.1673849,44.9419424 12.4980721,44.1352549 C10.5747335,43.2122881 10.5747335,42.3401935 10.3932865,39.3023973 C10.3279655,38.372163 10.3279655,30.6831955 10.3279655,25.9157449 L10.3279655,22.3546919 C10.3279655,22.0494588 10.4513495,21.9259121 10.6981175,21.9259121 C11.6271263,21.9259121 14.7262418,21.9259121 15.5318666,22.0494588 C17.3753561,22.1713525 19.1512883,22.7917393 20.6704468,23.8445202 C25.4679066,27.1512123 26.6944885,32.5291291 26.6944885,36.264601 C26.6944885,37.63815 27.3694715,38.9608269 28.7847584,39.1715831 C30.2000454,39.3823393 32,38.2849535 32,33.5393054 C32,26.155571 25.8888637,21.8823074 21.3091404,20.4578861 Z M20.1914266,18.6628247 C18.8922658,20.1163158 18.0140621,20.2689323 14.5593105,20.2689323 C13.2964742,20.2976023 12.0335684,20.2149187 10.7852121,20.0218388 C10.4731232,19.8982921 10.3497392,19.7747454 10.3497392,19.3386981 L10.3497392,2.73256312 C10.3497392,2.36192291 10.5384441,2.18023653 11.0755273,2.04942234 C12.0510792,1.84046013 13.0463964,1.7381167 14.0440009,1.74418923 C20.1115899,1.74418923 22.4050805,7.26018766 22.4050805,12.4055459 C22.4369484,14.6890514 21.651732,16.9086028 20.1914266,18.6628247 L20.1914266,18.6628247 Z" id="Shape" fill="#a2312d"></path>
                    <path d="M39.7278633,6.87242124 C36.3582105,6.37697816 32.9243896,6.53040507 29.6128179,7.32437265 C29.3237948,7.38966572 29.0773121,7.57639155 28.9369729,7.83636693 C28.7966337,8.0963423 28.7761854,8.40410054 28.8809044,8.6802269 L28.8809044,8.6802269 C29.066496,9.1742959 29.5995678,9.4460744 30.1105191,9.30712725 C31.8126641,8.81254419 33.5779511,8.56699271 35.3510202,8.57817335 C44.031515,8.57817335 51.7678413,15.2335224 51.7678413,27.9173202 C51.7678413,43.225352 41.8430935,45.8277174 36.9099961,45.8277174 C28.1270334,45.8277174 21.2909608,39.7774001 19.8417719,29.8417585 C19.6260961,28.335378 18.2682235,27.2579486 16.7457776,27.3851838 L16.7457776,27.3851838 C15.9588644,27.4475268 15.2330072,27.8316433 14.7407197,28.4462407 C14.2484322,29.0608382 14.0336732,29.851036 14.1474844,30.6290287 C15.5015245,39.2306846 22.0667891,48 35.3729776,48 C48.5474216,48 57.2937887,38.370519 57.4108948,26.6635195 C57.5060436,16.5747976 49.7843556,8.2136964 39.7278633,6.87242124 Z" id="Path" fill="#a2312d"></path>
                    <path d="M93.1470774,40.1054004 C91.4559119,38.350229 85.5588914,32.0272055 80.1030445,26.3871567 C71.5589824,17.6186433 63.5443287,9.09981953 62.6619815,8.21856191 C62.1031616,7.65308826 61.1914028,6.58823529 60.5296424,6.58823529 C60.0958217,6.58823529 59.794353,7.15370894 59.794353,9.28341487 L59.794353,39.7896164 C59.794353,44.6145019 59.6031778,46.0538894 58.2281868,46.3990486 C57.4925177,46.6001809 56.733574,46.7038821 55.9708485,46.7074888 C55.8526179,46.7033416 55.7379749,46.7484317 55.6543216,46.8319817 C55.5706684,46.9155316 55.5255226,47.030033 55.5294118,47.1481176 C55.5294118,47.5226521 55.8458493,47.5887464 56.4046692,47.5887464 C58.9193587,47.5887464 61.2355201,47.3978073 61.7355169,47.3978073 C62.2355136,47.3978073 64.4340288,47.5887464 67.5737142,47.5887464 C68.1987102,47.5887464 68.5737077,47.4639016 68.5737077,47.1481176 C68.57786,47.030033 68.5327142,46.9155316 68.449061,46.8319817 C68.3654078,46.7484317 68.2507647,46.7033416 68.1325341,46.7074888 C67.2050928,46.7022658 66.280818,46.5988748 65.3751991,46.3990486 C63.9046204,46.0171703 63.3678592,44.7026277 63.24286,40.318371 L62.6178641,15.1951848 C64.3090296,17.0752011 70.5222245,23.5891637 76.9192417,30.2940655 C82.7353804,36.4114622 90.6765052,44.2399675 91.2647367,44.7393468 C94.3382461,47.5593712 94.9044189,48 95.4705917,48 C95.8455892,48 95.9044124,47.684216 95.9044124,44.1738731 L96,26.0126222 C96,25.5783359 95.8258116,25.1621496 95.5162793,24.85714 C95.2067471,24.5521303 94.7877351,24.3837441 94.3529519,24.3896394 L94.3529519,24.3896394 C93.9174815,24.389527 93.5003582,24.5647769 93.1959131,24.8757566 C92.8914681,25.1867364 92.7254183,25.6071771 92.7353153,26.0419974 L93.1470774,40.1054004 Z" id="Path" fill="#a2312d"></path>
                    <path d="M110.425819,40.4543901 C113.575626,33.3948917 120.678981,15.4523021 121.852013,11.6722418 C122.089948,11.0326526 122.25512,10.368211 122.344396,9.6915192 C122.376826,9.20117069 122.081544,8.74848714 121.620303,8.58144391 C121.015328,8.42588093 120.390459,8.36229087 119.766624,8.39280366 C119.455264,8.39280366 119.151144,8.21141881 119.151144,7.95748002 C119.151144,7.70354122 119.520432,7.52941176 120.382103,7.52941176 C122.554383,7.52941176 125.016301,7.65275346 125.696948,7.65275346 C126.001068,7.65275346 128.34713,7.52941176 129.954617,7.52941176 C130.512169,7.52941176 130.823529,7.65275346 130.823529,7.89943686 C130.823529,8.14612026 130.635265,8.39280366 130.200809,8.39280366 C129.297299,8.36306845 128.402293,8.57599426 127.608555,9.00951216 C126.884462,9.51013435 126.001068,10.2501845 124.581845,13.8416046 C123.966365,15.2926834 121.308943,21.6411533 118.528424,28.0766878 C115.197595,35.7456394 112.786364,41.4411237 111.548164,44.0385548 C110.099977,47.2019067 109.759654,48 109.202102,48 C108.64455,48 108.217335,47.3252483 107.167399,44.7858604 L93.8295996,12.5428891 C92.5986409,9.5681775 91.8528247,9.00951216 90.0643141,8.58144391 C89.3725646,8.44728995 88.6689768,8.38408369 87.9644434,8.39280366 C87.7101399,8.37345363 87.5174843,8.15467459 87.5299874,7.89943686 C87.5299874,7.58745492 88.0875393,7.52941176 88.9781741,7.52941176 C91.5704283,7.52941176 94.662307,7.65275346 95.3429547,7.65275346 C95.9005066,7.65275346 98.3044966,7.52941176 100.411608,7.52941176 C101.403616,7.52941176 101.896,7.65275346 101.896,7.89943686 C101.892677,8.04087633 101.830625,8.17451666 101.724791,8.26816752 C101.618956,8.36181839 101.478933,8.4069907 101.338448,8.39280366 C100.671047,8.37807598 100.005081,8.46118236 99.3616729,8.63948706 C98.9578224,8.75707273 98.6976823,9.14959547 98.7461935,9.5681775 C98.7461935,10.2501845 99.4268413,11.860882 100.19438,13.9649463 L110.425819,40.4543901 Z" id="Path" fill="#a2312d"></path>
                    <path d="M137.89046,31.8740522 C137.89046,36.9188267 137.89046,41.0339214 138.138646,43.181554 C138.328435,44.7166068 138.510925,45.7039412 140.131431,45.9489731 C140.955878,46.0763727 141.786893,46.1581776 142.620588,46.194005 C142.737961,46.1899352 142.851773,46.2341842 142.934819,46.3161756 C143.017866,46.3981669 143.062685,46.5105324 143.058562,46.6264143 C143.058562,46.8714462 142.810377,47.0588235 142.182613,47.0588235 C139.131389,47.0588235 135.612992,46.8714462 135.335608,46.8714462 C135.058224,46.8714462 131.598223,47.0588235 129.91932,47.0588235 C129.357252,47.0588235 129.043371,46.9363076 129.043371,46.6264143 C129.039248,46.5105324 129.084067,46.3981669 129.167114,46.3161756 C129.25016,46.2341842 129.363972,46.1899352 129.481345,46.194005 C130.048306,46.1724931 130.611232,46.0903354 131.160248,45.9489731 C132.225987,45.7039412 132.408477,44.7166068 132.620164,43.181554 C132.86835,41.0195077 132.926747,36.9116199 132.926747,31.8740522 L132.926747,22.6493217 C132.926747,14.5344415 132.926747,13.0570433 132.802654,11.3994745 C132.678561,9.61938978 132.247886,8.81943268 131.058054,8.57440077 C130.504885,8.46460295 129.943187,8.40191348 129.379151,8.38702343 C129.143452,8.3728819 128.9555,8.18731813 128.941176,7.95461419 C128.941176,7.65192772 129.189362,7.52941176 129.817126,7.52941176 C131.620122,7.52941176 135.043625,7.65192772 135.357506,7.65192772 C135.671388,7.65192772 139.153288,7.52941176 140.83949,7.52941176 C141.459955,7.52941176 141.70814,7.65192772 141.70814,7.95461419 C141.672822,8.1773948 141.495813,8.35215367 141.270165,8.38702343 C140.811938,8.37700018 140.354029,8.41809925 139.905144,8.50953939 C138.40873,8.81943268 138.094849,9.55452839 137.970756,11.3922677 C137.912359,13.0498365 137.912359,14.5272347 137.912359,22.6421149 L137.89046,31.8740522 Z" id="Path" fill="#a2312d"></path>
                    <path d="M184.43573,7.52941176 C182.232676,7.52941176 180.460185,7.65490196 179.850219,7.65490196 C179.240253,7.65490196 176.664042,7.52941176 174.217001,7.52941176 C173.607035,7.52941176 173.176471,7.58846597 173.176471,7.90588235 C173.176471,8.09042676 173.233879,8.40784313 173.607035,8.40784313 C174.487358,8.42433859 175.365265,8.50823059 176.233478,8.65882352 C177.891151,8.9762399 178.257131,9.76608995 178.257131,12.9845444 L178.300187,13.3905421 C178.319704,14.3178479 179.056184,15.0590408 179.95786,15.0588235 L179.95786,15.0588235 C180.868957,15.0548185 181.607687,14.2982016 181.615533,13.361015 L181.615533,12.5416378 C181.615533,9.58892732 181.737527,8.90980391 183.517193,8.53333333 C183.939848,8.44490484 184.370429,8.40283948 184.80171,8.40784313 C185.096178,8.41395181 185.352831,8.20274398 185.411765,7.90588235 C185.418852,7.61799308 184.988288,7.52941176 184.43573,7.52941176 Z" id="Path" fill="#a2312d"></path>
                    <path d="M178.934542,40.1351459 C177.272496,38.3784168 171.509298,32.0497818 166.163411,26.4047276 C157.817207,17.6284324 149.960263,9.10204849 149.104058,8.22000877 C148.550042,7.65403329 147.629082,6.58823529 147.017507,6.58823529 C146.585806,6.58823529 146.298006,7.15421078 146.298006,9.28580676 L146.298006,39.8190816 C146.298006,44.6482491 146.110936,46.0889139 144.758275,46.4343795 C144.038572,46.636532 143.295816,46.7403405 142.549409,46.7430934 C142.434323,46.7410832 142.323372,46.7869019 142.241982,46.8700489 C142.160592,46.9531959 142.115741,47.0665428 142.117647,47.1841133 C142.117647,47.5589801 142.427094,47.6251331 142.98111,47.6251331 C145.434606,47.6251331 147.708227,47.4340245 148.197487,47.4340245 C148.686747,47.4340245 150.838053,47.6251331 153.903125,47.6251331 C154.521895,47.6251331 154.88884,47.5001775 154.88884,47.1841133 C154.890808,47.0665428 154.845958,46.9531959 154.764568,46.8700489 C154.683178,46.7869019 154.572226,46.7410832 154.45714,46.7430934 C153.549595,46.738198 152.645133,46.6347114 151.759014,46.4343795 C150.320013,46.0521623 149.794778,44.736453 149.672463,40.3483055 L149.053693,15.2028232 C150.715738,17.0845079 156.788321,23.6042515 163.047974,30.3151037 C168.760807,36.4011777 176.552996,44.2366305 177.107011,44.736453 C180.114523,47.5589801 180.661343,48 181.215358,48 C181.560718,48 181.639863,46.5299338 181.647059,43.4354445 C181.647059,43.0436391 181.494553,42.6679202 181.222553,42.3916975 L178.934542,40.1351459 Z" id="Path" fill="#a2312d"></path>
                    <path d="M201.448171,6.58823529 C213.746147,6.58823529 223.058824,14.1110202 223.058824,26.42302 C223.058824,38.2393323 214.321363,48 201.135078,48 C186.164896,48 179.764706,36.7449807 179.764706,27.2321567 C179.764706,18.717997 186.354207,6.58823529 201.448171,6.58823529 Z M202.685978,45.827723 C207.593518,45.827723 217.466849,43.2180747 217.466849,27.9173716 C217.466849,15.2336063 209.770602,8.57827433 201.135078,8.57827433 C192.004432,8.57827433 185.422212,14.3005477 185.422212,25.8034107 C185.422212,38.1154105 192.805366,45.827723 202.685978,45.827723 Z" id="Shape" fill="#a2312d"></path>
                    <path d="M204.235294,27.6465901 C204.235294,29.5311146 202.760467,31.0588235 200.941176,31.0588235 C199.121886,31.0588235 197.647059,29.5311146 197.647059,27.6465901 C197.647059,25.7567378 200.941176,21.6470588 200.941176,21.6470588 C200.941176,21.6470588 204.235294,25.7567378 204.235294,27.6465901 Z" id="Path" fill="#a2312d"></path>
                </g>
            </g>
        </g>
    </g>
</svg>
