<svg xmlns="http://www.w3.org/2000/svg" viewBox="0 0 40 40">
  <defs>
    <style>.cls-916968{fill:#916968;}</style>
  </defs>
  <g id="Type">
    <path class="cls-916968"
          d="M10.94,40c2.42,0,3.42-1.64,2.71-3.24A18.82,18.82,0,0,0,10.94,33a18.72,18.72,0,0,0-2.72,3.76C7.51,38.36,8.52,40,10.94,40Z"/>
    <path class="cls-916968"
          d="M19.94,40c2.42,0,3.42-1.64,2.71-3.24A18.82,18.82,0,0,0,19.94,33a18.72,18.72,0,0,0-2.72,3.76C16.51,38.36,17.52,40,19.94,40Z"/>
    <path class="cls-916968"
          d="M28.94,40c2.42,0,3.42-1.64,2.71-3.24A18.82,18.82,0,0,0,28.94,33a18.72,18.72,0,0,0-2.72,3.76C25.51,38.36,26.52,40,28.94,40Z"/>
    <path class="cls-916968"
          d="M29,31H11a7,7,0,0,1-7-7V16a1.89,1.89,0,0,0-2-2,1,1,0,0,1,0-2,3.89,3.89,0,0,1,4,4v8a5,5,0,0,0,5,5H29a5,5,0,0,0,5-5V16a3.89,3.89,0,0,1,4-4,1,1,0,0,1,0,2,1.89,1.89,0,0,0-2,2v8A7,7,0,0,1,29,31Z"/>
    <path class="cls-916968" d="M21,19.28V8a1,1,0,0,0-2,0V19.28A2,2,0,0,0,18,21a2,2,0,0,0,4,0A2,2,0,0,0,21,19.28Z"/>
    <path class="cls-916968"
          d="M24,15V4a4,4,0,0,0-8,0V15H8v9a3,3,0,0,0,3,3H29a3,3,0,0,0,3-3V15ZM20,25a4,4,0,0,1-2.4-7.18A1,1,0,0,0,18,17V4a2,2,0,0,1,4,0V17a1,1,0,0,0,.4.8A4,4,0,0,1,20,25Z"/>
  </g>
</svg>
