<svg xmlns="http://www.w3.org/2000/svg" viewBox="0 0 40 40">
  <defs>
    <style>.cls-916968{fill:#916968;}.cls-fff{fill:#fff;}</style>
  </defs>
  <g id="Type">
    <path class="cls-916968"
          d="M0,0V16.34c10,0,20.54,5,20.54,5a56.9,56.9,0,0,0-5.75,2.17A47,47,0,0,0,0,18.9v1.44c4.76.44,8.74,2.19,12.86,4.07C11.32,25.13,9.6,26,7.77,27A35.3,35.3,0,0,0,0,23.58v1.58A21.51,21.51,0,0,1,6,28c-1.93,1.12-3.95,2.4-6,3.85v2.51A78,78,0,0,1,40,19.46V0Z"/>
    <path class="cls-916968" d="M4.92,40H8.09A78.29,78.29,0,0,1,40,24V21.92a.87.87,0,0,0-.23,0A80.44,80.44,0,0,0,4.92,40Z"/>
    <path class="cls-916968" d="M21.45,40h3.17A78.68,78.68,0,0,1,40,30V27.8a1,1,0,0,0-.45.09A80.43,80.43,0,0,0,21.45,40Z"/>
    <path class="cls-fff"
          d="M28.22,4a5.5,5.5,0,0,1,2.26,4.45,5.39,5.39,0,0,1-5.33,5.45c-.14,0-.27,0-.4,0A5.54,5.54,0,1,0,28.22,4Z"/>
    <circle class="cls-fff" cx="17.5" cy="11.5" r="0.5"/>
    <circle class="cls-fff" cx="17.5" cy="4.5" r="0.5"/>
    <circle class="cls-fff" cx="6.5" cy="6.5" r="0.5"/>
    <circle class="cls-fff" cx="10.5" cy="12.5" r="0.5"/>
  </g>
</svg>
