<svg xmlns="http://www.w3.org/2000/svg" viewBox="0 0 40 40">
  <defs>
    <style>.cls-a2312d{fill:#a2312d;}.cls-ba9d9c{fill:#ba9d9c;}</style>
  </defs>
  <g id="Type">
    <rect class="cls-a2312d" x="-6.33" y="18.16" width="52.52" height="3.84" transform="translate(-8.36 19.97) rotate(-45)"/>
    <path class="cls-ba9d9c"
          d="M6.15,12.1A6.16,6.16,0,0,0,10.8,10a27.22,27.22,0,0,0,7.44,1.21l0,3.9a1.57,1.57,0,0,0,.25.85l3.09-3.09,0-1.71c.66,0,1.29-.1,1.9-.18L34.42,0a5.46,5.46,0,0,0-.57,0,6.16,6.16,0,0,0-4.79,2.27A27,27,0,0,0,19.46.7,28.43,28.43,0,0,0,10.68,2,6.15,6.15,0,0,0,6.15,0,6.1,6.1,0,0,0,0,6.05,6.1,6.1,0,0,0,6.15,12.1Z"/>
    <path class="cls-ba9d9c"
          d="M24.86,23.23a1.64,1.64,0,0,0-1.08-1.47L17.3,28.24l.81.27-2,.9L15,30.59a1.48,1.48,0,0,0-.06.47,1.66,1.66,0,0,0,1,1.49l2.94,1.24-.95.88a1.68,1.68,0,0,0-.52,1.21L19.13,40l1.6-3.43L23,34.45a1.64,1.64,0,0,0-.5-2.71L20.67,31l2.65-1.21a1.64,1.64,0,0,0-.17-3.06l-2.36-.78,3-1.1A1.65,1.65,0,0,0,24.86,23.23Z"/>
    <path class="cls-ba9d9c" d="M33.47,12.07c.13,0,.25,0,.38,0a6.1,6.1,0,0,0,6.14-6c0-.16,0-.31,0-.47Z"/>
    <path class="cls-ba9d9c" d="M16.07,18.39l-2.55.49a1.66,1.66,0,0,0-1.35,1.54,1.61,1.61,0,0,0,.57,1.3Z"/>
    <path class="cls-ba9d9c" d="M25.66,19.88l.3-.06a1.66,1.66,0,0,0,1.33-1.36,1.62,1.62,0,0,0,0-.22Z"/>
  </g>
</svg>
