<svg xmlns="http://www.w3.org/2000/svg" viewBox="0 0 2000 416"><rect width="2000" height="416" fill="#efe7dd"/><path d="M993.5,157.41c2.48-2.58,5-5.17,5-9.5,0-2.63-1.9-7.91-10.55-7.91-2.43,0-4.49.16-5.75.16-.27,0-3.59-.16-6-.16-.58,0-.84.11-.84.42s.21.32.42.32a9.57,9.57,0,0,1,1.8.16c1.73.37,2.16,1.21,2.27,3s.1,3.17.1,11.4v9.29c0,5.07,0,9.24-.26,11.45-.22,1.53-.48,2.69-1.53,2.9a7.88,7.88,0,0,1-1.59.21c-.31,0-.42.16-.42.32,0,.32.26.42.84.42.8,0,2-.1,3.07-.1s2-.06,2.11-.06,1.68.06,3.21.16,3.23.16,3.81.16a16.19,16.19,0,0,0,6.59-1.29,10.8,10.8,0,0,0-1.8-1.07,8.77,8.77,0,0,1-3.32.67,12.49,12.49,0,0,1-4.64-.79c-1.64-.79-1.64-1.53-1.79-4.12-.06-.79-.06-7.33-.06-11.39v-3c0-.26.11-.37.32-.37.79,0,3.43,0,4.12.11a8.62,8.62,0,0,1,4.38,1.53c4,2.79,5.11,7.38,5.11,10.55a2.26,2.26,0,0,0,1.79,2.46c1.27.17,2.75-.74,2.75-4.78C1002.63,162.27,997.4,158.63,993.5,157.41Zm-1-1.52c-1.11,1.26-1.85,1.36-4.8,1.36a18,18,0,0,1-3.22-.21c-.26-.1-.37-.21-.37-.58V142.32c0-.32.16-.47.64-.58a11.78,11.78,0,0,1,2.53-.26c5.17,0,7.12,4.69,7.12,9.07A8.17,8.17,0,0,1,992.55,155.89Z" fill="#fff"/><path d="M1009.71,145.57a22.47,22.47,0,0,0-8.55.37.89.89,0,0,0-.61,1.16h0a.88.88,0,0,0,1,.53A15.45,15.45,0,0,1,1006,147c7.34,0,13.88,5.64,13.88,16.41,0,13-8.39,15.2-12.56,15.2-7.43,0-13.2-5.14-14.43-13.57A2.41,2.41,0,0,0,990.3,163h0a2.41,2.41,0,0,0-2.2,2.75c1.14,7.3,6.69,14.74,17.92,14.74s18.53-8.17,18.63-18.1A17,17,0,0,0,1009.71,145.57Z" fill="#fff"/><path d="M1009.16,163.42a2.82,2.82,0,1,1-5.63,0c0-1.55,2.81-5,2.81-5S1009.16,161.87,1009.16,163.42Z" fill="#fff"/></svg>