<svg xmlns="http://www.w3.org/2000/svg" viewBox="0 0 640 160"><rect width="640" height="160" fill="#efe7dd"/><path d="M313.5,77.18c2.48-2.59,5-5.17,5-9.5,0-2.64-1.9-7.92-10.55-7.92-2.43,0-4.49.16-5.75.16-.27,0-3.59-.16-6-.16-.58,0-.84.11-.84.42s.21.32.42.32a10.48,10.48,0,0,1,1.8.16c1.73.37,2.16,1.21,2.27,3s.1,3.16.1,11.4v9.28c0,5.07,0,9.24-.26,11.45-.22,1.53-.48,2.69-1.53,2.9a7.9,7.9,0,0,1-1.59.22c-.31,0-.42.16-.42.32,0,.31.26.42.84.42.8,0,2-.11,3.07-.11s2,0,2.11,0,1.68,0,3.21.16,3.23.15,3.81.15a16.19,16.19,0,0,0,6.59-1.28,10.86,10.86,0,0,0-1.8-1.08,8.58,8.58,0,0,1-3.32.67,12.29,12.29,0,0,1-4.64-.79c-1.64-.78-1.64-1.53-1.79-4.11-.06-.79-.06-7.34-.06-11.4v-3c0-.26.11-.36.32-.36.79,0,3.43,0,4.12.1A8.81,8.81,0,0,1,313,80.08c4,2.79,5.11,7.38,5.11,10.55a2.26,2.26,0,0,0,1.79,2.46c1.27.17,2.75-.73,2.75-4.78C322.63,82,317.4,78.39,313.5,77.18Zm-.95-1.53c-1.11,1.26-1.85,1.37-4.8,1.37a19.12,19.12,0,0,1-3.22-.21c-.26-.11-.37-.21-.37-.59V62.08c0-.31.16-.47.64-.58a11.78,11.78,0,0,1,2.53-.26c5.17,0,7.12,4.7,7.12,9.08A8.16,8.16,0,0,1,312.55,75.65Z" fill="#fff"/><path d="M329.71,65.33a22.25,22.25,0,0,0-8.55.38.87.87,0,0,0-.61,1.15h0a.86.86,0,0,0,1,.53,15.81,15.81,0,0,1,4.43-.61c7.34,0,13.88,5.65,13.88,16.41,0,13-8.39,15.2-12.56,15.2-7.43,0-13.2-5.13-14.43-13.57a2.42,2.42,0,0,0-2.61-2.08h0a2.41,2.41,0,0,0-2.2,2.75c1.14,7.3,6.69,14.75,17.92,14.75s18.53-8.18,18.63-18.11A17,17,0,0,0,329.71,65.33Z" fill="#fff"/><path d="M329.16,83.18a2.82,2.82,0,1,1-5.63,0c0-1.55,2.81-5,2.81-5S329.16,81.63,329.16,83.18Z" fill="#fff"/></svg>