<svg xmlns="http://www.w3.org/2000/svg" viewBox="0 0 40 40">
  <defs>
    <style>.cls-916968{fill:#916968;}</style>
  </defs>
  <g id="Type">
    <path class="cls-916968"
          d="M11.34,2.29a1.68,1.68,0,0,1-.46,1.17,4.21,4.21,0,0,1-1.12.82c-.38.21-.78.44-1.19.69a7.09,7.09,0,0,0-1.13.82,4,4,0,0,0-.83,1,2.42,2.42,0,0,0-.33,1.26,2,2,0,0,0,.33,1.11,5.76,5.76,0,0,0,.79,1c.31.32.65.66,1,1a8,8,0,0,1,1,1.14,6.68,6.68,0,0,1,.79,1.42,5,5,0,0,1,.32,1.85,4.76,4.76,0,0,1-.34,1.65,9.44,9.44,0,0,1-.92,1.86,12,12,0,0,1-1.37,1.82,13,13,0,0,1-1.67,1.57,9.08,9.08,0,0,1-1.85,1.11A4.71,4.71,0,0,1,2.55,24,3.24,3.24,0,0,1,.77,23.5,1.68,1.68,0,0,1,0,22a2.35,2.35,0,0,1,.35-1.24,6.77,6.77,0,0,1,.87-1.1,14.67,14.67,0,0,1,1.15-1,14.48,14.48,0,0,0,1.14-1,5.86,5.86,0,0,0,.87-1,2.06,2.06,0,0,0,.36-1.16,2.92,2.92,0,0,0-.66-1.74c-.44-.6-.93-1.21-1.47-1.85A19.14,19.14,0,0,1,1.14,9.9a3.62,3.62,0,0,1-.66-2,5.7,5.7,0,0,1,.74-2.65A10.63,10.63,0,0,1,3.13,2.68,10.73,10.73,0,0,1,5.74.76,6.07,6.07,0,0,1,8.6,0a3.11,3.11,0,0,1,1.94.62A2,2,0,0,1,11.34,2.29Z"/>
    <path class="cls-916968"
          d="M21.5,23.82a6.31,6.31,0,0,1-3.41-.9,7.37,7.37,0,0,1-2.41-2.4A11.36,11.36,0,0,1,14.27,17a18.21,18.21,0,0,1,0-8.35,13.11,13.11,0,0,1,1.53-3.81,9,9,0,0,1,2.61-2.78A6.51,6.51,0,0,1,22.21,1a5.84,5.84,0,0,1,3.56,1,7.5,7.5,0,0,1,2.29,2.69,12.84,12.84,0,0,1,1.22,3.71,22.67,22.67,0,0,1,.38,4.1,18.27,18.27,0,0,1-.5,4.32,11.64,11.64,0,0,1-1.52,3.59,7.68,7.68,0,0,1-2.55,2.46A6.84,6.84,0,0,1,21.5,23.82Zm.39-16.35a1.44,1.44,0,0,0-1.05.44,3.38,3.38,0,0,0-.72,1.16,6.32,6.32,0,0,0-.42,1.61,12,12,0,0,0-.13,1.8,15.69,15.69,0,0,0,.14,2,10.05,10.05,0,0,0,.44,1.85,4.12,4.12,0,0,0,.72,1.32,1.34,1.34,0,0,0,1.05.49,1.29,1.29,0,0,0,1.13-.64A5.37,5.37,0,0,0,23.71,16,10.55,10.55,0,0,0,24,14.12c0-.64.08-1.18.08-1.61A14.17,14.17,0,0,0,24,10.84a8.66,8.66,0,0,0-.37-1.63A3.87,3.87,0,0,0,23,8,1.33,1.33,0,0,0,21.89,7.47Z"/>
    <path class="cls-916968"
          d="M39.65,22.59a.83.83,0,0,1-.29.65,1.37,1.37,0,0,1-.69.31c-.3.06-.64.12-1,.17s-.77.1-1.17.13-.78.07-1.16.08l-1,0h-.34l-.45,0-.44-.06a1.21,1.21,0,0,1-.31-.11.71.71,0,0,1-.18-.23,1.77,1.77,0,0,1-.15-.31,2.46,2.46,0,0,1-.09-.34,1.59,1.59,0,0,1,0-.29.93.93,0,0,1,.06-.34.64.64,0,0,1,.2-.3l.37-.35.38-.33.56-.54L34.6,20c.27-.28.53-.57.8-.88s.51-.6.73-.89a5.94,5.94,0,0,0,.53-.83,1.39,1.39,0,0,0,.21-.65.6.6,0,0,0-.17-.43.57.57,0,0,0-.45-.17,1,1,0,0,0-.59.2q-.27.21-.54.45a5.19,5.19,0,0,1-.58.44,1.2,1.2,0,0,1-.7.21,1.06,1.06,0,0,1-.73-.25.87.87,0,0,1-.26-.66,2.24,2.24,0,0,1,.29-1.11,3,3,0,0,1,.78-.88,3.94,3.94,0,0,1,2.31-.8,5.15,5.15,0,0,1,1.21.14,2.8,2.8,0,0,1,1,.42A2.17,2.17,0,0,1,39,15a2.32,2.32,0,0,1,.23,1.07,3,3,0,0,1-.19,1,6.92,6.92,0,0,1-.49,1.09,11.23,11.23,0,0,1-.71,1.09c-.27.36-.54.7-.82,1s-.56.63-.84.91-.54.53-.77.74L37,21.83a14.06,14.06,0,0,1,1.56-.08,1.35,1.35,0,0,1,.76.21A.7.7,0,0,1,39.65,22.59Z"/>
    <path class="cls-916968"
          d="M8.31,26.57a1.75,1.75,0,0,1-.5,1.21,5.53,5.53,0,0,1-1.23,1,11.91,11.91,0,0,1-1.52.75L3.69,30c0,.25,0,.5,0,.76l-.06.77A13.64,13.64,0,0,1,5,31a4.73,4.73,0,0,1,1.47-.25,1.82,1.82,0,0,1,.92.21.79.79,0,0,1,.36.74,1.44,1.44,0,0,1-.46,1,4.59,4.59,0,0,1-1.09.8,8,8,0,0,1-1.33.6c-.47.17-.86.29-1.18.39,0,.39,0,.77,0,1.15l-.06,1.13c0,.19,0,.43-.07.71a3.19,3.19,0,0,1-.19.81,2,2,0,0,1-.42.69.91.91,0,0,1-.69.29.87.87,0,0,1-.7-.36,3.18,3.18,0,0,1-.49-.92,7.23,7.23,0,0,1-.33-1.26,13.45,13.45,0,0,1-.19-1.36,11.31,11.31,0,0,1-.08-1.23c0-.38,0-.67,0-.86s0-.38,0-.68,0-.63,0-1,0-.75,0-1.15,0-.77.06-1.13.06-.67.11-.95a2.26,2.26,0,0,1,.16-.61,2.28,2.28,0,0,1,1-.76,12,12,0,0,1,1.79-.67c.66-.19,1.3-.35,1.92-.47A7.66,7.66,0,0,1,7,25.76a3.44,3.44,0,0,1,.46,0,1.38,1.38,0,0,1,.41.11.76.76,0,0,1,.31.25A.66.66,0,0,1,8.31,26.57Z"/>
    <path class="cls-916968"
          d="M18.83,30a4,4,0,0,1-.62,2.18,6.28,6.28,0,0,1-1.64,1.7c.2.28.42.61.64,1s.41.78.59,1.19a10.2,10.2,0,0,1,.42,1.25,4.57,4.57,0,0,1,.17,1.15,1.76,1.76,0,0,1-.3,1,1.13,1.13,0,0,1-1,.45,1.3,1.3,0,0,1-1-.53,6.06,6.06,0,0,1-.78-1.25c-.22-.49-.43-1-.62-1.49a8.1,8.1,0,0,0-.53-1.21l-.67.23-.68.26c0,.26,0,.61-.07,1.06a7.89,7.89,0,0,1-.21,1.35A3.94,3.94,0,0,1,12,39.51a1,1,0,0,1-.91.49,1.16,1.16,0,0,1-1-.47A3,3,0,0,1,9.6,38.4a7.33,7.33,0,0,1-.17-1.33c0-.45,0-.8,0-1.06,0-.55,0-1.09,0-1.63s0-1.07,0-1.62,0-1,0-1.51,0-1,0-1.53v-.45a5.4,5.4,0,0,1,0-.56c0-.2,0-.38.07-.56a1.15,1.15,0,0,1,.14-.42,1.8,1.8,0,0,1,.87-.7,9.89,9.89,0,0,1,1.51-.59A15.23,15.23,0,0,1,13.66,26a6.82,6.82,0,0,1,1.17-.15,4.29,4.29,0,0,1,1.74.34,3.62,3.62,0,0,1,1.26.9,3.91,3.91,0,0,1,.75,1.32A4.84,4.84,0,0,1,18.83,30Zm-3.58.24a.93.93,0,0,0-.23-.69,1,1,0,0,0-.75-.24,2.76,2.76,0,0,0-.79.12c-.26.09-.5.18-.72.28q.08,1.39.06,2.76a6.57,6.57,0,0,0,.83-.31,3.89,3.89,0,0,0,.78-.48,2.5,2.5,0,0,0,.59-.63A1.38,1.38,0,0,0,15.25,30.26Z"/>
    <path class="cls-916968"
          d="M28.93,36.5a1.23,1.23,0,0,1-.2.65,2.62,2.62,0,0,1-.9.71,16.91,16.91,0,0,1-1.59.76c-.58.24-1.14.45-1.68.62a4.44,4.44,0,0,1-1.2.25,2.45,2.45,0,0,1-.64-.11,7.38,7.38,0,0,1-.73-.29,4,4,0,0,1-.67-.41,1.82,1.82,0,0,1-.44-.44,1.46,1.46,0,0,1-.14-.49,8.11,8.11,0,0,1-.12-.86c0-.33-.06-.68-.08-1s-.05-.72-.07-1.05,0-.63,0-.89,0-.44,0-.56c0-.44,0-.93,0-1.5a16.44,16.44,0,0,1,.18-1.69,9.58,9.58,0,0,1,.4-1.64,4.14,4.14,0,0,1,.7-1.32,1.52,1.52,0,0,1,.54-.34,7.12,7.12,0,0,1,1-.33c.37-.11.77-.21,1.19-.3s.84-.17,1.23-.24l1.07-.16a6.47,6.47,0,0,1,.74-.06,1.33,1.33,0,0,1,.55.12,1.23,1.23,0,0,1,.44.3,1.48,1.48,0,0,1,.29.43,1.26,1.26,0,0,1,.11.51.86.86,0,0,1-.07.38,1.61,1.61,0,0,1-.2.35,2.67,2.67,0,0,1-.81.55c-.42.21-.86.42-1.35.62s-.94.39-1.39.56l-.94.35c-.05.27-.1.54-.16.82a7.55,7.55,0,0,0-.13.83,12.11,12.11,0,0,1,1.36-.53,4.71,4.71,0,0,1,1.43-.24c.91,0,1.37.41,1.37,1.23a1,1,0,0,1-.13.52,1.42,1.42,0,0,1-.32.41,2.25,2.25,0,0,1-.47.31l-.51.25a10.06,10.06,0,0,1-1.3.52l-1.35.43c0,.09,0,.2-.08.31a1.87,1.87,0,0,0,0,.32,4.21,4.21,0,0,0,0,.5c0,.16.05.32.08.49l.74-.23,1.08-.32,1.08-.27a3.72,3.72,0,0,1,.77-.11,1.26,1.26,0,0,1,.55.11,1.6,1.6,0,0,1,.42.3,1.39,1.39,0,0,1,.28.43A1.24,1.24,0,0,1,28.93,36.5Z"/>
    <path class="cls-916968"
          d="M39.22,36.5a1.32,1.32,0,0,1-.19.65,2.8,2.8,0,0,1-.91.71,16.91,16.91,0,0,1-1.59.76c-.58.24-1.14.45-1.68.62a4.44,4.44,0,0,1-1.2.25,2.45,2.45,0,0,1-.64-.11,7.38,7.38,0,0,1-.73-.29,4,4,0,0,1-.67-.41,1.82,1.82,0,0,1-.44-.44,1.76,1.76,0,0,1-.14-.49c-.05-.25-.08-.53-.12-.86s-.06-.68-.08-1,0-.72-.07-1.05,0-.63,0-.89,0-.44,0-.56c0-.44,0-.93.05-1.5a16.44,16.44,0,0,1,.18-1.69,10.62,10.62,0,0,1,.4-1.64,4.14,4.14,0,0,1,.7-1.32,1.58,1.58,0,0,1,.55-.34,7,7,0,0,1,.95-.33c.37-.11.77-.21,1.19-.3s.84-.17,1.23-.24L37,25.82a6.64,6.64,0,0,1,.74-.06,1.3,1.3,0,0,1,.55.12,1.23,1.23,0,0,1,.44.3,1.48,1.48,0,0,1,.29.43,1.26,1.26,0,0,1,.11.51.86.86,0,0,1-.07.38,1.61,1.61,0,0,1-.2.35,2.67,2.67,0,0,1-.81.55c-.41.21-.86.42-1.35.62s-.94.39-1.39.56l-.94.35c0,.27-.1.54-.16.82a7.55,7.55,0,0,0-.13.83,12.11,12.11,0,0,1,1.36-.53,4.71,4.71,0,0,1,1.43-.24c.91,0,1.37.41,1.37,1.23a1.08,1.08,0,0,1-.12.52,1.65,1.65,0,0,1-.33.41,2.25,2.25,0,0,1-.47.31l-.51.25a10.06,10.06,0,0,1-1.3.52l-1.35.43c0,.09,0,.2-.08.31a1.82,1.82,0,0,0,0,.32,4.19,4.19,0,0,0,0,.5c0,.16.06.32.08.49l.75-.23L36,35.55l1.08-.27a3.71,3.71,0,0,1,.78-.11,1.24,1.24,0,0,1,.54.11,1.45,1.45,0,0,1,.42.3,1.39,1.39,0,0,1,.28.43A1.24,1.24,0,0,1,39.22,36.5Z"/>
  </g>
</svg>
