<svg xmlns="http://www.w3.org/2000/svg" viewBox="0 0 40 40">
  <defs>
    <style>.cls-916968{fill:#916968;}</style>
  </defs>
  <g id="Type">
    <path class="cls-916968"
          d="M40,0c-1.87-.3-14.92,1.08-21.55,9.75-3.53,4.62-2.56,9.85,1.1,12.92A25.47,25.47,0,0,1,32.37,5.33S20.3,14.56,18.63,34.62C13.14,23.85,5.83,21.78,5.83,21.78c6.78.91,10.86,6.73,11.87,8.35a6.2,6.2,0,0,0-1.95-7.39C10.09,17.92,1.2,18.88,0,19.35c0,0,1.33,7.26,4.91,11.39,2.21,2.56,6.72,4.93,10.5,2.17a25.36,25.36,0,0,1,3,7.09h2.7a50.3,50.3,0,0,1,2.45-15.2c5.69,1.49,10.73-2.88,12.92-6.89C40.33,10.87,40,0,40,0Z"/>
  </g>
</svg>
